<svg width="50" height="50" viewBox="0 0 50 50" fill="none" xmlns="http://www.w3.org/2000/svg">
<circle cx="25" cy="25" r="25" fill="#F2F2F2"/>
<g clip-path="url(#clip0_6539_28512)">
<path fill-rule="evenodd" clip-rule="evenodd" d="M36.1205 25.0589C36.7817 25.4895 37.3213 25.8409 37.9565 26.293C38.9469 26.9918 39.5852 27.7469 39.8677 28.4205C40.029 28.8274 40.1098 29.2619 40.1056 29.6997C40.1054 30.2381 39.9969 30.771 39.7864 31.2662C39.6425 31.6359 39.4261 31.9728 39.15 32.2569C38.8738 32.541 38.5436 32.7665 38.1789 32.9201C37.886 33.0328 37.5719 33.0794 37.2589 33.0566C36.946 33.0338 36.6419 32.9421 36.3683 32.7881C36.0818 32.6372 35.8302 32.4273 35.6302 32.172C35.4302 31.9168 35.2862 31.622 35.2076 31.307C35.0974 30.8644 35.196 29.6318 35.8073 29.6822C36.1568 29.711 36.2482 30.0611 36.3172 30.3256C36.3368 30.4007 36.3546 30.4689 36.376 30.5208C36.6101 31.0935 37.1382 31.1478 37.4458 30.9382C37.9062 30.6256 37.734 30.0219 37.616 29.8026C37.3568 29.3212 36.8712 28.931 36.0124 28.4438C35.6259 28.2336 35.2228 28.0557 34.8072 27.9119L34.7763 27.9003C34.5267 27.809 34.2636 27.7217 34.0025 27.6401L33.6833 27.5373C33.6767 27.9705 33.6993 28.4038 33.751 28.834C33.9107 30.0858 34.4049 31.1658 34.6869 31.7821C34.767 31.9571 34.83 32.0947 34.8633 32.1883C35.3044 33.4267 35.3798 34.1488 35.3044 34.9253C35.2193 35.8299 34.7724 37.3071 33.4028 37.9438C32.9399 38.1793 32.43 38.3067 31.911 38.3165C31.3921 38.3262 30.8778 38.2181 30.4064 38.0001C29.3908 37.5148 29.0987 36.9519 28.8105 36.1754C28.6672 35.7996 28.6053 35.3975 28.629 34.9959C28.6527 34.5942 28.7614 34.2022 28.9479 33.846C29.2429 33.3279 29.7294 32.9472 30.302 32.7862C31.0042 32.5901 31.5032 32.9434 31.5206 33.2967C31.5322 33.5393 31.215 33.8965 31.1009 34.0149C30.8281 34.3003 30.6018 35.3097 31.215 35.6979C31.7973 36.0628 32.9057 35.6591 33.0198 34.6768C33.1475 33.5859 32.7471 31.3633 31.1144 29.0766C30.2302 27.7973 29.7485 26.2813 29.7313 24.7245V24.6585V24.5925C29.7485 23.0357 30.2302 21.5198 31.1144 20.2405C32.7471 17.9538 33.1475 15.7312 33.0198 14.6402C32.9057 13.658 31.7953 13.2542 31.215 13.6192C30.6018 14.0035 30.8223 15.0168 31.1009 15.3022C31.215 15.4206 31.5322 15.7777 31.5206 16.0204C31.5032 16.3737 31.0042 16.725 30.302 16.5309C29.7294 16.3699 29.2429 15.9891 28.9479 15.471C28.7614 15.1148 28.6527 14.7229 28.629 14.3212C28.6053 13.9195 28.6672 13.5174 28.8105 13.1417C29.0987 12.3671 29.3889 11.8023 30.4064 11.317C30.8778 11.099 31.3921 10.9909 31.911 11.0006C32.43 11.0104 32.9399 11.1377 33.4028 11.3733C34.7724 12.01 35.2193 13.4872 35.3044 14.3918C35.3798 15.1643 35.3044 15.8884 34.8633 17.1288C34.8298 17.2267 34.7632 17.373 34.6781 17.5599C34.3955 18.181 33.9086 19.2506 33.751 20.4831C33.6993 20.9133 33.6767 21.3465 33.6833 21.7798L34.0025 21.6769C34.2559 21.5954 34.519 21.508 34.7763 21.4168L34.8072 21.4052C35.2228 21.2613 35.6259 21.0834 36.0124 20.8733C36.8712 20.3899 37.3568 19.9998 37.616 19.5145C37.734 19.2951 37.9062 18.6914 37.4458 18.3789C37.1382 18.1692 36.6101 18.2255 36.376 18.7962C36.3546 18.8482 36.3368 18.9164 36.3172 18.9915C36.2482 19.2559 36.1568 19.6061 35.8073 19.6348C35.196 19.6853 35.0974 18.4527 35.2076 18.0101C35.2862 17.6951 35.4302 17.4003 35.6302 17.145C35.8302 16.8898 36.0818 16.6798 36.3683 16.529C36.6419 16.375 36.946 16.2833 37.2589 16.2605C37.5719 16.2377 37.886 16.2843 38.1789 16.397C38.5436 16.5505 38.8738 16.7761 39.15 17.0602C39.4261 17.3443 39.6425 17.6812 39.7864 18.0508C39.9969 18.5461 40.1054 19.0789 40.1056 19.6173C40.1097 20.0552 40.0289 20.4897 39.8677 20.8966C39.5852 21.5779 38.9469 22.3369 37.9565 23.0318C37.2303 23.5401 36.6305 23.9321 35.8287 24.4562C35.727 24.5226 35.6221 24.5912 35.5133 24.6624C35.7293 24.804 35.93 24.9347 36.1205 25.0589ZM28.5878 28.9815C28.787 29.0825 28.8973 29.1718 28.9225 29.2572C28.9337 29.4161 28.8877 29.5739 28.7928 29.7017C26.7095 33.3802 22.4537 35.3679 18.198 34.6439C14.1454 33.9587 10.8201 30.6121 10.116 26.5085C10.0479 26.113 10.0043 25.7034 9.96185 25.3049L9.95546 25.2448L9.95546 25.2448C9.93611 25.0507 9.91677 24.8566 9.89355 24.6625C9.90549 22.443 10.6414 20.2885 11.9887 18.5283C13.336 16.7681 15.2206 15.4991 17.3545 14.9152C19.4884 14.3313 21.7541 14.4646 23.8054 15.2948C25.8566 16.125 27.5805 17.6064 28.7135 19.5126C28.8838 19.7843 28.9437 19.9804 28.907 20.0949C28.8702 20.2095 28.7213 20.324 28.4524 20.4463C26.9745 21.114 25.5643 20.9956 24.1406 20.0872C21.9063 18.6604 18.759 18.7652 16.6582 20.3337C14.8495 21.6867 14.0854 23.4842 14.453 25.5321C14.8534 27.7703 16.31 29.3057 18.6642 29.9754C20.6992 30.5519 22.5698 30.2976 24.2199 29.2164C25.6378 28.2866 27.0673 28.2051 28.5878 28.9815ZM20.9814 26.4406H21.5289C21.731 26.4406 21.9249 26.5211 22.0678 26.6646C22.2107 26.808 22.291 27.0025 22.291 27.2054C22.291 27.4082 22.2107 27.6028 22.0678 27.7462C21.9249 27.8896 21.731 27.9702 21.5289 27.9702H20.9814C20.7793 27.9702 20.5854 27.8896 20.4425 27.7462C20.2996 27.6028 20.2193 27.4082 20.2193 27.2054C20.2193 27.0025 20.2996 26.808 20.4425 26.6646C20.5854 26.5211 20.7793 26.4406 20.9814 26.4406ZM21.5289 21.3507H20.9814C20.7793 21.3507 20.5854 21.4313 20.4425 21.5747C20.2996 21.7182 20.2193 21.9127 20.2193 22.1155C20.2193 22.3184 20.2996 22.5129 20.4425 22.6563C20.5854 22.7998 20.7793 22.8804 20.9814 22.8804H21.5289C21.731 22.8804 21.9249 22.7998 22.0678 22.6563C22.2107 22.5129 22.291 22.3184 22.291 22.1155C22.291 21.9127 22.2107 21.7182 22.0678 21.5747C21.9249 21.4313 21.731 21.3507 21.5289 21.3507Z" fill="#105FD3"/>
</g>
<defs>
<clipPath id="clip0_6539_28512">
<rect width="30.212" height="27.3171" fill="white" transform="translate(9.89355 11)"/>
</clipPath>
</defs>
</svg>
