<svg width="50" height="50" viewBox="0 0 50 50" fill="none" xmlns="http://www.w3.org/2000/svg">
<circle cx="25" cy="25" r="25" fill="#F2F2F2"/>
<g clip-path="url(#clip0_6724_7127)">
<path d="M26.625 14.1665C26.625 14.6475 26.4159 15.0798 26.0833 15.3777V17.4165H31.5C32.362 17.4165 33.1886 17.759 33.7981 18.3684C34.4076 18.9779 34.75 19.8046 34.75 20.6665V31.4999C34.75 32.3618 34.4076 33.1885 33.7981 33.798C33.1886 34.4075 32.362 34.7499 31.5 34.7499H18.5C17.638 34.7499 16.8114 34.4075 16.2019 33.798C15.5924 33.1885 15.25 32.3618 15.25 31.4999V20.6665C15.25 19.8046 15.5924 18.9779 16.2019 18.3684C16.8114 17.759 17.638 17.4165 18.5 17.4165H23.9167V15.3777C23.7146 15.197 23.561 14.9686 23.4698 14.7134C23.3786 14.4581 23.3526 14.1841 23.3944 13.9163C23.4361 13.6484 23.5442 13.3953 23.7088 13.1799C23.8733 12.9645 24.0892 12.7937 24.3366 12.6831C24.5841 12.5724 24.8553 12.5254 25.1255 12.5464C25.3958 12.5673 25.6565 12.6555 25.8839 12.8029C26.1114 12.9504 26.2983 13.1524 26.4278 13.3906C26.5572 13.6287 26.625 13.8955 26.625 14.1665ZM18.5 19.5832C18.2127 19.5832 17.9371 19.6973 17.734 19.9005C17.5308 20.1037 17.4167 20.3792 17.4167 20.6665V31.4999C17.4167 31.7872 17.5308 32.0627 17.734 32.2659C17.9371 32.4691 18.2127 32.5832 18.5 32.5832H31.5C31.7873 32.5832 32.0629 32.4691 32.266 32.2659C32.4692 32.0627 32.5833 31.7872 32.5833 31.4999V20.6665C32.5833 20.3792 32.4692 20.1037 32.266 19.9005C32.0629 19.6973 31.7873 19.5832 31.5 19.5832H18.5ZM14.1667 22.8332H12V29.3332H14.1667V22.8332ZM35.8333 22.8332H38V29.3332H35.8333V22.8332Z" fill="#062046"/>
<path d="M27.9795 28.2498H20.667M30.417 23.9165H20.667" stroke="#062046" stroke-width="1.7" stroke-linecap="round" stroke-linejoin="round"/>
</g>
<defs>
<clipPath id="clip0_6724_7127">
<rect width="26" height="26" fill="white" transform="translate(12 12)"/>
</clipPath>
</defs>
</svg>
