<svg width="34" height="34" viewBox="0 0 34 34" fill="none" xmlns="http://www.w3.org/2000/svg">
<path d="M13.25 31.775V20.3903C13.25 20.1317 13.3527 19.8837 13.5356 19.7008C13.7184 19.518 13.9664 19.4152 14.225 19.4152H16.1311C16.2941 19.4152 16.4545 19.3742 16.5975 19.2961C16.7406 19.2181 16.8618 19.1054 16.9501 18.9684L19.2999 15.3219C19.3882 15.1849 19.5094 15.0722 19.6525 14.9941C19.7955 14.9161 19.9559 14.8751 20.1189 14.875H25.8811C26.0441 14.8751 26.2045 14.9161 26.3475 14.9941C26.4906 15.0722 26.6118 15.1849 26.7001 15.3219L29.0499 18.9684C29.1382 19.1054 29.2594 19.2181 29.4025 19.2961C29.5455 19.3742 29.7059 19.4152 29.8689 19.4152H31.775C31.903 19.4152 32.0298 19.4405 32.1481 19.4895C32.2664 19.5385 32.3739 19.6103 32.4644 19.7008C32.555 19.7914 32.6268 19.8988 32.6758 20.0171C32.7248 20.1354 32.75 20.2622 32.75 20.3903V31.775C32.75 31.903 32.7248 32.0298 32.6758 32.1481C32.6268 32.2664 32.555 32.3739 32.4644 32.4644C32.3739 32.555 32.2664 32.6268 32.1481 32.6758C32.0298 32.7248 31.903 32.75 31.775 32.75H14.225C14.097 32.75 13.9702 32.7248 13.8519 32.6758C13.7336 32.6268 13.6261 32.555 13.5356 32.4644C13.445 32.3739 13.3732 32.2664 13.3242 32.1481C13.2752 32.0298 13.25 31.903 13.25 31.775Z" stroke="white" stroke-width="2.5" stroke-linecap="round" stroke-linejoin="round"/>
<path d="M1.875 26.25V27.0625C1.875 29.3062 3.69384 31.125 5.9375 31.125V31.125M1.875 12.4375V20.5625M1.875 6.75V6.75C1.875 4.05761 4.05761 1.875 6.75 1.875V1.875M12.4375 1.875H20.5625M26.25 1.875H27.0625C29.3062 1.875 31.125 3.69384 31.125 5.9375V5.9375M31.125 13.25V10.8125M23 27.875C23.862 27.875 24.6886 27.5326 25.2981 26.9231C25.9076 26.3136 26.25 25.487 26.25 24.625C26.25 23.763 25.9076 22.9364 25.2981 22.3269C24.6886 21.7174 23.862 21.375 23 21.375C22.138 21.375 21.3114 21.7174 20.7019 22.3269C20.0924 22.9364 19.75 23.763 19.75 24.625C19.75 25.487 20.0924 26.3136 20.7019 26.9231C21.3114 27.5326 22.138 27.875 23 27.875Z" stroke="white" stroke-width="2.5" stroke-linecap="round" stroke-linejoin="round"/>
</svg>
