<svg width="34" height="36" viewBox="0 0 34 36" fill="none" xmlns="http://www.w3.org/2000/svg">
<path d="M23.3333 2.1665V5.33317M15.4167 2.1665V5.33317M7.5 2.1665V5.33317" stroke="white" stroke-width="2.5" stroke-linecap="round" stroke-linejoin="round"/>
<path d="M28.8747 14.8333C28.8747 9.6086 28.8747 6.99623 27.2516 5.37312C25.6284 3.75 23.016 3.75 17.7913 3.75H13.0413C7.81661 3.75 5.20424 3.75 3.58113 5.37312C1.95801 6.99623 1.95801 9.6086 1.95801 14.8333V22.75C1.95801 27.9747 1.95801 30.587 3.58113 32.2103C5.20424 33.8333 7.81661 33.8333 13.0413 33.8333H17.7913" stroke="white" stroke-width="2.5" stroke-linecap="round" stroke-linejoin="round"/>
<path d="M25.7083 21.1665V33.8332M32.0417 27.4998H19.375" stroke="white" stroke-width="2.5" stroke-linecap="round"/>
<path d="M9.08301 22.7502H15.4163M9.08301 14.8335H21.7497" stroke="white" stroke-width="2.5" stroke-linecap="round"/>
</svg>
