<svg width="16" height="17" viewBox="0 0 16 17" fill="none" xmlns="http://www.w3.org/2000/svg">
<rect x="14.334" y="14.3398" width="12.6667" height="12.6667" rx="5.27778" transform="rotate(180 14.334 14.3398)" stroke="#062046" stroke-width="1.3" stroke-linecap="round" stroke-linejoin="round"/>
<path d="M9.33398 8.33984V10.5065C9.33398 11.1508 9.85632 11.6732 10.5007 11.6732V11.6732C11.145 11.6732 11.6673 11.1508 11.6673 10.5065V10.5065C11.6673 9.86218 11.145 9.33984 10.5007 9.33984H9.33398" stroke="#062046" stroke-width="1.3" stroke-linecap="round" stroke-linejoin="round"/>
<path d="M6.66732 7.67318V5.50651C6.66732 4.86218 6.14498 4.33984 5.50065 4.33984V4.33984C4.85632 4.33984 4.33398 4.86218 4.33398 5.50651V5.50651C4.33398 6.15084 4.85632 6.67318 5.50065 6.67318H6.66732" stroke="#062046" stroke-width="1.3" stroke-linecap="round" stroke-linejoin="round"/>
<path d="M8.33398 6.67318H10.5007C11.145 6.67318 11.6673 6.15084 11.6673 5.50651V5.50651C11.6673 4.86218 11.145 4.33984 10.5007 4.33984V4.33984C9.85632 4.33984 9.33398 4.86218 9.33398 5.50651V6.67318" stroke="#062046" stroke-width="1.3" stroke-linecap="round" stroke-linejoin="round"/>
<path d="M7.66732 9.33984H5.50065C4.85632 9.33984 4.33398 9.86218 4.33398 10.5065V10.5065C4.33398 11.1508 4.85632 11.6732 5.50065 11.6732V11.6732C6.14498 11.6732 6.66732 11.1508 6.66732 10.5065V9.33984" stroke="#062046" stroke-width="1.3" stroke-linecap="round" stroke-linejoin="round"/>
</svg>
