<svg width="16" height="17" viewBox="0 0 16 17" fill="none" xmlns="http://www.w3.org/2000/svg">
<path d="M7.99935 7.86523V14.6652" stroke="#062046" stroke-width="1.3" stroke-linecap="round" stroke-linejoin="round"/>
<path d="M2.18359 4.60352L8.00093 7.86485L13.8129 4.60618" stroke="#062046" stroke-width="1.3" stroke-linecap="round" stroke-linejoin="round"/>
<path fill-rule="evenodd" clip-rule="evenodd" d="M2.67267 4.11885L7.256 1.50885C7.66 1.27885 8.15467 1.27551 8.56133 1.50018L13.3113 4.12218C13.736 4.35618 14 4.80285 14 5.28751V10.6462C14 11.1222 13.7453 11.5622 13.3327 11.7995L8.666 14.4882C8.254 14.7255 7.746 14.7255 7.33333 14.4882L2.66667 11.7995C2.25467 11.5622 2 11.1222 2 10.6462V5.27551C2 4.79751 2.25667 4.35551 2.67267 4.11885Z" stroke="#062046" stroke-width="1.3" stroke-linecap="round" stroke-linejoin="round"/>
<path d="M2 7.95898L5 9.64098V13.1443" stroke="#062046" stroke-width="1.3" stroke-linecap="round" stroke-linejoin="round"/>
<path d="M11 13.1443V9.64098L14 7.95898" stroke="#062046" stroke-width="1.3" stroke-linecap="round" stroke-linejoin="round"/>
<path d="M10.9766 2.83264L7.9999 4.50131L4.97656 2.80664" stroke="#062046" stroke-width="1.3" stroke-linecap="round" stroke-linejoin="round"/>
</svg>
