<?xml version="1.0" standalone="no"?>
<!DOCTYPE svg PUBLIC "-//W3C//DTD SVG 20010904//EN"
 "http://www.w3.org/TR/2001/REC-SVG-20010904/DTD/svg10.dtd">
<svg version="1.0" xmlns="http://www.w3.org/2000/svg"
 width="512.000000pt" height="512.000000pt" viewBox="0 0 512.000000 512.000000"
 preserveAspectRatio="xMidYMid meet">

<g transform="translate(0.000000,512.000000) scale(0.100000,-0.100000)"
fill="#000000" stroke="none">
<path d="M2475 4675 c-16 -8 -240 -224 -496 -482 -453 -455 -467 -469 -479
-519 -34 -150 104 -288 254 -253 48 11 64 24 316 275 146 145 269 264 273 264
4 0 7 -473 7 -1050 0 -1013 1 -1052 19 -1088 39 -75 101 -112 191 -112 90 0
152 37 191 112 18 36 19 75 19 1088 0 577 3 1050 7 1050 4 0 127 -119 273
-264 252 -251 268 -264 316 -275 150 -35 288 103 254 253 -12 50 -26 65 -479
519 -286 287 -479 474 -500 483 -41 17 -126 17 -166 -1z"/>
<path d="M582 2981 c-54 -14 -108 -56 -131 -104 l-22 -45 3 -943 c3 -939 3
-944 25 -1022 32 -112 67 -172 153 -258 86 -87 160 -128 278 -156 73 -17 168
-18 1672 -18 1504 0 1599 1 1672 18 118 28 192 69 278 156 86 86 121 146 153
258 22 78 22 83 25 1023 l3 946 -24 44 c-15 30 -40 55 -71 75 -97 60 -240 30
-298 -62 l-23 -38 -6 -920 c-4 -680 -9 -930 -18 -957 -7 -23 -29 -51 -56 -74
-44 -35 -47 -36 -164 -45 -188 -15 -3007 -6 -3053 9 -23 8 -52 30 -74 57 -34
43 -37 50 -45 147 -4 57 -8 477 -9 934 l0 831 -23 44 c-41 78 -152 123 -245
100z"/>
</g>
</svg>
