<svg width="16" height="14" viewBox="0 0 16 14" fill="none" xmlns="http://www.w3.org/2000/svg">
<path d="M7.9987 13L7.93199 12.8999C7.4689 12.2053 7.23735 11.858 6.93143 11.6065C6.6606 11.3839 6.34854 11.2169 6.0131 11.1151C5.6342 11 5.21677 11 4.38191 11H3.46536C2.71863 11 2.34526 11 2.06004 10.8547C1.80916 10.7268 1.60519 10.5229 1.47736 10.272C1.33203 9.98677 1.33203 9.6134 1.33203 8.86667V3.13333C1.33203 2.3866 1.33203 2.01323 1.47736 1.72801C1.60519 1.47713 1.80916 1.27316 2.06004 1.14532C2.34526 1 2.71863 1 3.46536 1H3.73203C5.2255 1 5.97224 1 6.54267 1.29065C7.04444 1.54631 7.45239 1.95426 7.70805 2.45603C7.9987 3.02646 7.9987 3.77319 7.9987 5.26667M7.9987 13V5.26667M7.9987 13L8.0654 12.8999C8.5285 12.2053 8.76004 11.858 9.06596 11.6065C9.33679 11.3839 9.64886 11.2169 9.9843 11.1151C10.3632 11 10.7806 11 11.6155 11H12.532C13.2788 11 13.6521 11 13.9374 10.8547C14.1882 10.7268 14.3922 10.5229 14.52 10.272C14.6654 9.98677 14.6654 9.6134 14.6654 8.86667V3.13333C14.6654 2.3866 14.6654 2.01323 14.52 1.72801C14.3922 1.47713 14.1882 1.27316 13.9374 1.14532C13.6521 1 13.2788 1 12.532 1H12.2654C10.7719 1 10.0252 1 9.45472 1.29065C8.95296 1.54631 8.54501 1.95426 8.28935 2.45603C7.9987 3.02646 7.9987 3.77319 7.9987 5.26667" stroke="#74778B" stroke-width="1.5" stroke-linecap="round" stroke-linejoin="round"/>
</svg>
