<svg width="16" height="17" viewBox="0 0 16 17" fill="none" xmlns="http://www.w3.org/2000/svg">
<path d="M13.0028 2.67188H10.16C9.2454 2.67057 8.40882 3.18693 8 4.00508C7.59118 3.18693 6.7546 2.67057 5.84 2.67188L2.9996 2.67214C2.73449 2.67214 2.48024 2.77746 2.29277 2.96492C2.10531 3.15238 2 3.40663 2 3.67174V11.6724C2 11.9375 2.10531 12.1918 2.29277 12.3792C2.48024 12.5667 2.73449 12.672 2.9996 12.672H5.84C6.7546 12.6707 7.59118 13.1871 8 14.0052C8.40882 13.1871 9.2454 12.6707 10.16 12.672H13C13.5523 12.672 14 12.2243 14 11.672V3.67174C14 3.40663 13.8947 3.15238 13.7072 2.96492C13.5198 2.77746 13.2655 2.67214 13.0004 2.67214" stroke="#062046" stroke-width="1.3" stroke-linecap="round" stroke-linejoin="round"/>
<path d="M8.00268 6.00521L7.99935 6.00854L7.99602 6.00521L7.99935 6.00188L8.00268 6.00521" stroke="#062046" stroke-width="1.3" stroke-linecap="round" stroke-linejoin="round"/>
<path d="M8.00268 7.67318L7.99935 7.67651L7.99602 7.67318L7.99935 7.66984L8.00268 7.67318" stroke="#062046" stroke-width="1.3" stroke-linecap="round" stroke-linejoin="round"/>
<path d="M8.00268 9.33919L7.99935 9.34253L7.99602 9.33919L7.99935 9.33586L8.00268 9.33919" stroke="#062046" stroke-width="1.3" stroke-linecap="round" stroke-linejoin="round"/>
<path d="M8.00268 11.0052L7.99935 11.0085L7.99602 11.0052L7.99935 11.0019L8.00268 11.0052" stroke="#062046" stroke-width="1.3" stroke-linecap="round" stroke-linejoin="round"/>
</svg>
