<svg width="20" height="20" viewBox="0 0 20 20" fill="none" xmlns="http://www.w3.org/2000/svg">
<g clip-path="url(#clip0_2170_28212)">
<path opacity="0.12" d="M10 11.666C12.7614 11.666 15 9.42744 15 6.66602C15 3.90459 12.7614 1.66602 10 1.66602C7.23858 1.66602 5 3.90459 5 6.66602C5 9.42744 7.23858 11.666 10 11.666Z" fill="black"/>
<path d="M10.0013 17.0595C10.8859 17.8513 12.054 18.3327 13.3346 18.3327C16.0961 18.3327 18.3346 16.0941 18.3346 13.3327C18.3346 11.0269 16.7739 9.08567 14.6512 8.50783M5.35145 8.50782C3.22875 9.08566 1.66797 11.0269 1.66797 13.3327C1.66797 16.0941 3.90655 18.3327 6.66797 18.3327C9.42939 18.3327 11.668 16.0941 11.668 13.3327C11.668 12.6823 11.5438 12.0609 11.3178 11.4909M15.0013 6.66602C15.0013 9.42744 12.7627 11.666 10.0013 11.666C7.23988 11.666 5.0013 9.42744 5.0013 6.66602C5.0013 3.90459 7.23988 1.66602 10.0013 1.66602C12.7627 1.66602 15.0013 3.90459 15.0013 6.66602Z" stroke="#062046" stroke-width="1.5" stroke-linecap="round" stroke-linejoin="round"/>
</g>
<defs>
<clipPath id="clip0_2170_28212">
<rect width="20" height="20" fill="white"/>
</clipPath>
</defs>
</svg>
