<svg width="22" height="22" viewBox="0 0 22 22" fill="none" xmlns="http://www.w3.org/2000/svg">
<path d="M6.6226 13.2636C6.46406 13.105 6.38479 13.0258 6.29229 12.9691C6.21027 12.9188 6.12085 12.8818 6.02732 12.8593C5.92182 12.834 5.80972 12.834 5.58551 12.834H4.88723C4.60809 12.8338 4.36791 12.8337 4.15189 12.8679C2.97518 13.0543 2.05231 13.9771 1.86594 15.1538C1.83173 15.3699 1.83188 15.61 1.83206 15.8892L1.83207 16.0263C1.83192 16.4636 1.83182 16.7876 1.87723 17.0743C2.12572 18.6432 3.35622 19.8737 4.92516 20.1222C5.21185 20.1676 5.53588 20.1675 5.97311 20.1674H16.0244C16.4616 20.1675 16.7856 20.1676 17.0723 20.1222C18.6413 19.8737 19.8718 18.6432 20.1203 17.0743C20.1657 16.7876 20.1656 16.4636 20.1654 16.0264L20.1654 15.8892C20.1656 15.61 20.1658 15.3699 20.1316 15.1538C19.9452 13.9771 19.0223 13.0543 17.8456 12.8679C17.6296 12.8337 17.3894 12.8338 17.1103 12.834H16.412C16.1878 12.834 16.0757 12.834 15.9702 12.8593C15.8767 12.8818 15.7872 12.9188 15.7052 12.9691C15.6127 13.0258 15.5334 13.105 15.3749 13.2636L12.9433 15.6952C11.8694 16.7691 10.1282 16.7691 9.05421 15.6952L6.6226 13.2636Z" fill="#062046"/>
<path d="M11.9154 2.75065C11.9154 2.24439 11.505 1.83398 10.9988 1.83398C10.4925 1.83398 10.0821 2.24439 10.0821 2.75065V11.5376L7.0636 8.51914C6.70562 8.16116 6.12522 8.16116 5.76724 8.51914C5.40926 8.87712 5.40926 9.45752 5.76724 9.8155L10.3506 14.3988C10.7086 14.7568 11.289 14.7568 11.6469 14.3988L16.2303 9.8155C16.5883 9.45752 16.5883 8.87712 16.2303 8.51914C15.8723 8.16116 15.2919 8.16116 14.9339 8.51914L11.9154 11.5376V2.75065Z" fill="#062046"/>
</svg>
