<svg width="16" height="17" viewBox="0 0 16 17" fill="none" xmlns="http://www.w3.org/2000/svg">
<path d="M11.3327 10.0059H12.3327C13.6213 10.0059 14.666 8.96119 14.666 7.67253V4.33919C14.666 3.05053 13.6213 2.00586 12.3327 2.00586H6.99935C5.71068 2.00586 4.66602 3.05053 4.66602 4.33919V6.00586" stroke="#062046" stroke-width="1.3" stroke-linecap="round" stroke-linejoin="round"/>
<path d="M3.66602 8.66211L5.67765 9.5267C6.09621 9.7066 6.57017 9.70732 6.98928 9.5287L8.99935 8.67189" stroke="#062046" stroke-width="1.3" stroke-linecap="round" stroke-linejoin="round"/>
<path fill-rule="evenodd" clip-rule="evenodd" d="M3.33398 6.00586H9.00065C10.2893 6.00586 11.334 7.05053 11.334 8.33919V11.6725C11.334 12.9612 10.2893 14.0059 9.00065 14.0059H3.66732C2.37865 14.0059 1.33398 12.9612 1.33398 11.6725V8.00586C1.33398 6.90129 2.22941 6.00586 3.33398 6.00586Z" stroke="#062046" stroke-width="1.3" stroke-linecap="round" stroke-linejoin="round"/>
</svg>
