<svg width="16" height="16" viewBox="0 0 16 16" fill="none" xmlns="http://www.w3.org/2000/svg">
<path fill-rule="evenodd" clip-rule="evenodd" d="M3.66536 5.66602C3.66536 4.56145 4.5608 3.66602 5.66537 3.66602C6.76993 3.66602 7.66536 4.56145 7.66536 5.66602C7.66536 6.77059 6.76993 7.66602 5.66537 7.66602C4.5608 7.66602 3.66536 6.77059 3.66536 5.66602Z" fill="#74778B"/>
<path fill-rule="evenodd" clip-rule="evenodd" d="M8.33203 1.33268H5.17117C4.63452 1.33267 4.19161 1.33267 3.83081 1.36215C3.45608 1.39276 3.11161 1.45847 2.78806 1.62333C2.28629 1.87899 1.87834 2.28694 1.62268 2.78871C1.45782 3.11227 1.39211 3.45673 1.36149 3.83147C1.33202 4.19226 1.33202 4.63516 1.33203 5.17181V10.8269C1.33202 11.3635 1.33202 11.8064 1.36149 12.1672C1.39211 12.542 1.45782 12.8864 1.62268 13.21C1.87834 13.7118 2.28629 14.1197 2.78806 14.3754C3.11161 14.5402 3.45608 14.6059 3.83081 14.6366C3.94774 14.6461 4.07329 14.6526 4.20786 14.6569C4.3474 14.6662 4.5143 14.6662 4.68632 14.6661C6.90156 14.6661 9.1168 14.666 11.332 14.666C11.3631 14.666 11.3936 14.666 11.4237 14.666C11.954 14.6663 12.3478 14.6665 12.6889 14.5751C13.6091 14.3286 14.3279 13.6098 14.5745 12.6895C14.6914 12.2534 14.6655 11.7863 14.6654 11.339C14.6665 11.2128 14.6654 11.0866 14.6654 10.9604C14.6658 10.6477 14.6661 10.3723 14.5936 10.1091C14.5299 9.87814 14.4253 9.66046 14.2847 9.46648C14.1245 9.24547 13.9092 9.07363 13.6649 8.8786L11.7775 7.36876C11.6643 7.27815 11.5523 7.18855 11.4506 7.11912C11.3375 7.04193 11.1984 6.96176 11.0242 6.9171C10.7793 6.85431 10.5216 6.86244 10.2811 6.94054C10.1101 6.99609 9.97625 7.08488 9.86826 7.16904C9.77113 7.24475 9.66502 7.34123 9.55773 7.4388L3.88567 12.5952C3.74335 12.7246 3.60577 12.8496 3.50463 12.959C3.46408 13.0029 3.40248 13.0712 3.34489 13.1614C3.11621 13.0327 2.93018 12.8392 2.81069 12.6047C2.75756 12.5004 2.71428 12.3509 2.6904 12.0587C2.66588 11.7586 2.66537 11.3704 2.66537 10.7993V5.19935C2.66537 4.6283 2.66588 4.2401 2.6904 3.94004C2.71428 3.64776 2.75756 3.4983 2.81069 3.39403C2.93852 3.14315 3.1425 2.93917 3.39338 2.81134C3.49764 2.75821 3.64711 2.71493 3.93939 2.69105C4.23945 2.66653 4.62765 2.66602 5.1987 2.66602H8.33203C8.70022 2.66602 8.9987 2.36754 8.9987 1.99935C8.9987 1.63116 8.70022 1.33268 8.33203 1.33268Z" fill="#74778B"/>
<path d="M13.1368 0.861278C13.0117 0.736253 12.8422 0.666016 12.6654 0.666016C12.4886 0.666016 12.319 0.736254 12.194 0.861278L10.194 2.86128C9.93361 3.12163 9.93361 3.54374 10.194 3.80409C10.4543 4.06444 10.8764 4.06444 11.1368 3.80409L11.9987 2.94216V5.33268C11.9987 5.70087 12.2972 5.99935 12.6654 5.99935C13.0336 5.99935 13.332 5.70087 13.332 5.33268V2.94216L14.194 3.80409C14.4543 4.06444 14.8764 4.06444 15.1368 3.80409C15.3971 3.54374 15.3971 3.12163 15.1368 2.86128L13.1368 0.861278Z" fill="#74778B"/>
</svg>
