<svg width="18" height="18" viewBox="0 0 18 18" fill="none" xmlns="http://www.w3.org/2000/svg">
<path d="M6.97586 2.47578C6.97586 2.10299 6.67365 1.80078 6.30086 1.80078C5.92807 1.80078 5.62586 2.10299 5.62586 2.47578V3.60836C4.53069 3.63298 3.45003 3.71736 2.38706 3.85842C2.01751 3.90746 1.75768 4.2468 1.80672 4.61635C1.85576 4.9859 2.1951 5.24573 2.56465 5.19669C3.78671 5.03452 5.03383 4.95078 6.30086 4.95078C6.81437 4.95078 7.3246 4.96454 7.83121 4.99169C7.45512 6.26195 6.93903 7.47229 6.30075 8.60479C5.96558 8.01011 5.66411 7.39398 5.39892 6.75899C5.25525 6.41499 4.85992 6.25259 4.51593 6.39626C4.17193 6.53992 4.00953 6.93525 4.15319 7.27925C4.53379 8.19056 4.98363 9.0656 5.49612 9.89781C4.53368 11.3046 3.37163 12.5644 2.05056 13.6363C1.76107 13.8712 1.71681 14.2963 1.9517 14.5858C2.18659 14.8753 2.61168 14.9195 2.90116 14.6846C4.18408 13.6437 5.32805 12.4378 6.30075 11.0991C6.38664 11.2173 6.47387 11.3345 6.56242 11.4506C6.78846 11.7471 7.21202 11.8041 7.50846 11.5781C7.80491 11.352 7.86198 10.9285 7.63594 10.632C7.45296 10.3921 7.27603 10.1473 7.10538 9.89781C8.01498 8.42077 8.7272 6.80888 9.20512 5.09886C9.48367 5.12743 9.761 5.16006 10.0371 5.19669C10.4066 5.24573 10.746 4.9859 10.795 4.61635C10.844 4.2468 10.5842 3.90746 10.2147 3.85842C9.73107 3.79425 9.24381 3.74181 8.75318 3.70138C8.16539 3.65295 7.57278 3.62178 6.97586 3.60836V2.47578Z" fill="#0F172A"/>
<path fill-rule="evenodd" clip-rule="evenodd" d="M11.7009 7.20078C11.9566 7.20078 12.1903 7.34523 12.3047 7.57391L16.1297 15.2239C16.2964 15.5573 16.1612 15.9628 15.8278 16.1295C15.4944 16.2962 15.0889 16.1611 14.9222 15.8277L14.2088 14.4008H9.1931L8.47967 15.8277C8.31295 16.1611 7.90749 16.2962 7.57406 16.1295C7.24062 15.9628 7.10547 15.5573 7.27219 15.2239L11.0972 7.57391C11.2115 7.34523 11.4453 7.20078 11.7009 7.20078ZM13.5338 13.0508L11.7009 9.38513L9.8681 13.0508H13.5338Z" fill="#0F172A"/>
</svg>
