<svg width="101" height="24" viewBox="0 0 101 24" fill="none" xmlns="http://www.w3.org/2000/svg">
<g clip-path="url(#clip0_2817_47561)">
<path fill-rule="evenodd" clip-rule="evenodd" d="M92.148 2.32823C91.7655 2.32911 91.399 2.48219 91.1288 2.75389C90.8587 3.02559 90.707 3.39373 90.707 3.77753C90.7035 3.97429 90.7395 4.16974 90.8128 4.35227C90.8861 4.53481 90.9951 4.70071 91.1335 4.84014C91.2659 4.98048 91.4259 5.09173 91.6034 5.16682C91.7808 5.24192 91.9719 5.27924 92.1644 5.27641C92.353 5.27872 92.54 5.24189 92.7138 5.16824C92.8875 5.09458 93.0442 4.98569 93.174 4.8484C93.3107 4.71318 93.4186 4.55143 93.4911 4.37301C93.5636 4.19459 93.5991 4.00323 93.5955 3.81059C93.5989 3.61595 93.563 3.42265 93.49 3.2423C93.417 3.06196 93.3084 2.89831 93.1707 2.76121C93.0391 2.62225 92.8803 2.51206 92.7044 2.43755C92.5284 2.36305 92.339 2.32583 92.148 2.32823ZM75.3717 2.32826H72.7005V6.26633H71.3303V8.57332H72.7005V16.9502H75.3717V8.57332H76.9559V6.26633H75.3717V2.32826ZM65.1267 6.35557C65.7101 6.61366 66.2376 6.98359 66.6797 7.44461V6.26633H69.3558V16.9518H66.6797V15.8231C66.2271 16.2745 65.6957 16.6386 65.1119 16.8973C64.5708 17.1205 63.9908 17.2329 63.4058 17.2278C62.0312 17.2278 60.8422 16.6929 59.8387 15.6232C58.8353 14.5534 58.3335 13.2225 58.3335 11.6306C58.3335 9.978 58.8188 8.6251 59.7893 7.57186C60.2312 7.06852 60.7762 6.66681 61.387 6.39416C61.9977 6.1215 62.6599 5.98433 63.3284 5.992C63.9464 5.98778 64.5586 6.11155 65.1267 6.35557ZM65.0195 14.5556C65.3793 14.4037 65.7027 14.1767 65.9683 13.8896V13.8913C66.5216 13.3052 66.7972 12.5378 66.795 11.5893C66.795 10.6594 66.5205 9.90639 65.9715 9.33019C65.7019 9.04686 65.3759 8.82352 65.0148 8.67464C64.6537 8.52575 64.2654 8.45464 63.8751 8.4659C63.4895 8.45616 63.1064 8.5296 62.7515 8.68128C62.3967 8.83295 62.0784 9.05932 61.8182 9.34507C61.2693 9.92457 60.9948 10.6759 60.9948 11.5992C60.9948 12.5224 61.2726 13.2815 61.8281 13.8764C62.0868 14.1641 62.404 14.3928 62.7583 14.547C63.1125 14.7012 63.4956 14.7774 63.8817 14.7704C64.2719 14.7807 64.6598 14.7075 65.0195 14.5556ZM55.5636 6.42495C55.129 6.72792 54.7868 7.14617 54.5755 7.63298V6.28779H52.2847V16.9716H54.9378V12.6518L54.9279 12.1313C54.9279 10.6396 55.0695 9.63754 55.3528 9.12525C55.636 8.61295 55.9835 8.35791 56.3952 8.36011C56.6671 8.37957 56.9311 8.46035 57.1676 8.59643L57.9992 6.28283C57.6629 6.10983 57.2918 6.01601 56.914 6.00851C56.4323 6.00736 55.9615 6.15254 55.5636 6.42495ZM47.6406 11.5C47.6406 12.5081 47.5858 13.1663 47.476 13.4748C47.3508 13.8531 47.1084 14.1814 46.7843 14.4118C46.4481 14.6321 46.0526 14.7434 45.6513 14.7308C45.2515 14.7425 44.8583 14.6268 44.5281 14.4003C44.2184 14.1747 43.9878 13.8565 43.8694 13.4913C43.7333 13.1068 43.6652 12.4139 43.6652 11.4124V6.26631H40.9644V10.715C40.9644 12.4238 41.0687 13.6021 41.2773 14.2499C41.5299 15.1282 42.0649 15.8981 42.799 16.4395C43.5203 16.9639 44.4645 17.2256 45.6315 17.2245C46.7085 17.2245 47.5962 17.0003 48.2944 16.5519C49.0062 16.0863 49.559 15.4133 49.8787 14.6233C50.174 13.9359 50.3211 12.659 50.32 10.7927V6.26631H47.6406V11.5ZM79.5151 7.60651C80.5614 6.53014 81.8745 5.99196 83.4543 5.99196C85.1352 5.98204 86.501 6.51802 87.5517 7.59991C88.6023 8.68179 89.1277 10.1041 89.1277 11.8668L89.1178 12.3775H80.5329C80.6243 13.086 80.9768 13.7345 81.521 14.1953C82.0578 14.6437 82.7445 14.8679 83.5811 14.8679C84.0583 14.8751 84.532 14.7857 84.9739 14.6051C85.4159 14.4245 85.8171 14.1565 86.1535 13.8169L88.4064 14.8712C87.8964 15.6254 87.2025 16.2358 86.3906 16.6444C85.5165 17.0467 84.5622 17.2429 83.6009 17.2179C81.9321 17.2145 80.5724 16.6863 79.5217 15.633C78.471 14.5798 77.9457 13.2577 77.9457 11.6669C77.9457 10.0363 78.4688 8.68289 79.5151 7.60651ZM81.6346 8.88891C81.2756 9.15112 80.9462 9.61273 80.6465 10.2738H86.4499C86.2769 9.68392 85.9086 9.17092 85.4058 8.8195C84.8772 8.44316 84.2423 8.24681 83.5943 8.25928C82.8897 8.24629 82.2006 8.46767 81.6346 8.88891ZM93.4819 6.26631H90.8108V16.9502H93.4819V6.26631ZM99.2244 2.32826V6.26633H100.81V8.57332H99.2244V16.9502H96.5532V8.57332H95.1831V6.26633H96.5532V2.32826H99.2244ZM32.5589 13.9226C33.154 14.4977 33.9346 14.7853 34.9007 14.7853C36.0963 14.7864 37.0268 14.3793 37.6921 13.564L39.3027 15.5785C38.207 16.6901 36.7611 17.246 34.965 17.246C33.0931 17.246 31.6268 16.6896 30.5663 15.5769C29.9623 14.959 29.51 14.2086 29.2451 13.385C28.9802 12.5613 28.91 11.6871 29.0401 10.8316C29.1702 9.97603 29.4969 9.1626 29.9945 8.45569C30.492 7.74879 31.1468 7.16781 31.9068 6.75876C32.8608 6.25366 33.9259 5.99684 35.0045 6.0118C35.9897 5.9949 36.965 6.21057 37.8519 6.64143C38.3807 6.90797 38.862 7.26029 39.2764 7.6842L37.6905 9.66728C37.3636 9.28054 36.9527 8.97423 36.4893 8.77196C36.0259 8.56968 35.5224 8.47684 35.0177 8.50057C34.0197 8.50057 33.2116 8.79969 32.5935 9.39792C32.2877 9.69491 32.0474 10.0529 31.888 10.4488C31.7286 10.8448 31.6536 11.2699 31.668 11.6966C31.6531 12.1096 31.7248 12.521 31.8782 12.9045C32.0317 13.2879 32.2636 13.6347 32.5589 13.9226Z" fill="#262E30"/>
<path fill-rule="evenodd" clip-rule="evenodd" d="M22.7614 12.2012C23.3352 12.575 23.8035 12.88 24.3547 13.2723C25.2143 13.8788 25.7683 14.5341 26.0134 15.1187C26.1534 15.4718 26.2235 15.8489 26.2199 16.2289C26.2197 16.6962 26.1255 17.1586 25.9429 17.5884C25.818 17.9093 25.6302 18.2016 25.3905 18.4482C25.1509 18.6948 24.8643 18.8905 24.5478 19.0238C24.2935 19.1216 24.0209 19.162 23.7494 19.1422C23.4778 19.1224 23.2139 19.0429 22.9764 18.9092C22.7277 18.7783 22.5094 18.5961 22.3358 18.3746C22.1622 18.153 22.0373 17.8972 21.9691 17.6238C21.8734 17.2397 21.959 16.1699 22.4895 16.2137C22.7929 16.2387 22.8722 16.5426 22.9321 16.7721C22.9491 16.8373 22.9645 16.8964 22.9831 16.9415C23.1863 17.4385 23.6446 17.4857 23.9115 17.3037C24.3111 17.0325 24.1616 16.5086 24.0592 16.3182C23.8343 15.9004 23.4129 15.5618 22.6675 15.1389C22.3321 14.9565 21.9822 14.8021 21.6216 14.6773L21.5947 14.6672C21.3782 14.588 21.1498 14.5122 20.9232 14.4415L20.6462 14.3522C20.6405 14.7282 20.6601 15.1042 20.705 15.4775C20.8436 16.564 21.2724 17.5013 21.5172 18.0362C21.5867 18.188 21.6413 18.3074 21.6703 18.3886C22.053 19.4635 22.1185 20.0902 22.053 20.764C21.9792 21.5491 21.5914 22.8311 20.4028 23.3837C20.001 23.5881 19.5584 23.6986 19.1081 23.7071C18.6578 23.7156 18.2113 23.6217 17.8023 23.4325C16.9209 23.0114 16.6674 22.5228 16.4172 21.849C16.2929 21.5228 16.2392 21.1739 16.2597 20.8253C16.2803 20.4767 16.3746 20.1365 16.5364 19.8274C16.7925 19.3777 17.2147 19.0473 17.7116 18.9075C18.321 18.7374 18.7542 19.044 18.7693 19.3506C18.7793 19.5612 18.504 19.8712 18.405 19.9739C18.1682 20.2216 17.9718 21.0976 18.504 21.4345C19.0093 21.7512 19.9713 21.4008 20.0704 20.5484C20.1812 19.6016 19.8336 17.6727 18.4167 15.6881C17.6494 14.5778 17.2313 13.2622 17.2164 11.9111V11.8538V11.7965C17.2313 10.4454 17.6494 9.12982 18.4167 8.01951C19.8336 6.03497 20.1812 4.10602 20.0704 3.15924C19.9713 2.3068 19.0077 1.95639 18.504 2.2731C17.9718 2.60667 18.1632 3.48606 18.405 3.73371C18.504 3.83648 18.7793 4.14645 18.7693 4.35704C18.7542 4.66365 18.321 4.96857 17.7116 4.80011C17.2147 4.66033 16.7925 4.3299 16.5364 3.88028C16.3746 3.57114 16.2803 3.23095 16.2597 2.88237C16.2392 2.53378 16.2929 2.1848 16.4172 1.85867C16.6674 1.18649 16.9192 0.696253 17.8023 0.275086C18.2113 0.0859271 18.6578 -0.00793533 19.1081 0.000525159C19.5584 0.00898564 20.001 0.119549 20.4028 0.32394C21.5914 0.876512 21.9792 2.15855 22.053 2.9436C22.1185 3.6141 22.053 4.24248 21.6703 5.31899C21.6411 5.40394 21.5834 5.53089 21.5096 5.6931C21.2642 6.23213 20.8417 7.16044 20.705 8.23009C20.6601 8.60345 20.6405 8.97943 20.6462 9.35545L20.9232 9.26616C21.1431 9.19541 21.3714 9.1196 21.5947 9.04042L21.6216 9.03031C21.9822 8.90549 22.3321 8.7511 22.6675 8.56871C23.4129 8.14923 23.8343 7.81061 24.0592 7.38944C24.1616 7.19908 24.3111 6.67514 23.9115 6.40391C23.6446 6.22197 23.1863 6.27082 22.9831 6.76612C22.9645 6.8112 22.9491 6.87038 22.9321 6.93556C22.8722 7.16507 22.7929 7.46897 22.4895 7.49389C21.959 7.5377 21.8734 6.46793 21.9691 6.08382C22.0373 5.81044 22.1622 5.5546 22.3358 5.33308C22.5094 5.11156 22.7277 4.92936 22.9764 4.79842C23.2139 4.66477 23.4778 4.58523 23.7494 4.56543C24.0209 4.54563 24.2935 4.58607 24.5478 4.68386C24.8643 4.81713 25.1509 5.01286 25.3905 5.25943C25.6302 5.50599 25.818 5.79837 25.9429 6.1192C26.1255 6.54903 26.2197 7.01146 26.2199 7.47873C26.2234 7.85873 26.1533 8.23579 26.0134 8.58893C25.7683 9.18025 25.2143 9.83895 24.3547 10.4421C23.7245 10.8831 23.204 11.2233 22.5081 11.6782C22.4198 11.7359 22.3288 11.7954 22.2344 11.8572C22.4218 11.9801 22.596 12.0935 22.7614 12.2012ZM16.2241 15.6056C16.3971 15.6932 16.4928 15.7707 16.5146 15.8448C16.5243 15.9827 16.4844 16.1196 16.4021 16.2306C14.594 19.423 10.9006 21.1481 7.20719 20.5197C3.69005 19.9251 0.804157 17.0207 0.193065 13.4593C0.133924 13.116 0.0960885 12.7606 0.0592738 12.4147L0.0537223 12.3626L0.0537201 12.3626C0.0369326 12.1941 0.020145 12.0256 0 11.8572C0.0103568 9.93097 0.648991 8.06115 1.81828 6.53354C2.98758 5.00593 4.6232 3.90457 6.47513 3.39781C8.32706 2.89104 10.2934 3.00676 12.0736 3.72728C13.8538 4.44779 15.3499 5.73345 16.3333 7.38775C16.481 7.6236 16.5331 7.79375 16.5012 7.89315C16.4693 7.99254 16.34 8.09194 16.1066 8.19807C14.824 8.7776 13.6001 8.67483 12.3645 7.88641C10.4255 6.64818 7.69405 6.73915 5.87085 8.10036C4.30115 9.27458 3.63801 10.8346 3.95699 12.6119C4.3045 14.5543 5.56866 15.8869 7.61179 16.4681C9.37791 16.9685 11.0013 16.7478 12.4334 15.8094C13.6639 15.0025 14.9046 14.9317 16.2241 15.6056ZM9.62303 13.4004H10.0981C10.2736 13.4004 10.4418 13.4703 10.5659 13.5948C10.6899 13.7192 10.7596 13.8881 10.7596 14.0641C10.7596 14.2402 10.6899 14.409 10.5659 14.5335C10.4418 14.6579 10.2736 14.7279 10.0981 14.7279H9.62303C9.4476 14.7279 9.27935 14.6579 9.15531 14.5335C9.03126 14.409 8.96157 14.2402 8.96157 14.0641C8.96157 13.8881 9.03126 13.7192 9.15531 13.5948C9.27935 13.4703 9.4476 13.4004 9.62303 13.4004ZM10.0981 8.98312H9.62303C9.4476 8.98312 9.27935 9.05305 9.15531 9.17753C9.03126 9.30201 8.96157 9.47085 8.96157 9.64688C8.96157 9.82292 9.03126 9.99175 9.15531 10.1162C9.27935 10.2407 9.4476 10.3106 9.62303 10.3106H10.0981C10.2736 10.3106 10.4418 10.2407 10.5659 10.1162C10.6899 9.99175 10.7596 9.82292 10.7596 9.64688C10.7596 9.47085 10.6899 9.30201 10.5659 9.17753C10.4418 9.05305 10.2736 8.98312 10.0981 8.98312Z" fill="#105FD3"/>
</g>
<defs>
<clipPath id="clip0_2817_47561">
<rect width="101" height="24" fill="white"/>
</clipPath>
</defs>
</svg>
