<svg width="59" height="54" viewBox="0 0 59 54" fill="none" xmlns="http://www.w3.org/2000/svg">
<g clip-path="url(#clip0_4261_75593)">
<path fill-rule="evenodd" clip-rule="evenodd" d="M51.2131 27.4528C52.5041 28.2937 53.5578 28.98 54.7981 29.8627C56.7321 31.2273 57.9786 32.7018 58.5301 34.0171C58.8452 34.8116 59.003 35.66 58.9947 36.515C58.9944 37.5664 58.7824 38.6069 58.3715 39.574C58.0905 40.2958 57.6679 40.9537 57.1287 41.5085C56.5895 42.0632 55.9446 42.5036 55.2325 42.8035C54.6604 43.0235 54.0471 43.1145 53.4361 43.07C52.825 43.0254 52.2313 42.8464 51.6969 42.5457C51.1374 42.2511 50.6462 41.8412 50.2556 41.3427C49.865 40.8443 49.5839 40.2687 49.4305 39.6536C49.2152 38.7893 49.4078 36.3824 50.6015 36.4809C51.284 36.537 51.4624 37.2208 51.5972 37.7372C51.6355 37.8838 51.6702 38.017 51.712 38.1184C52.1691 39.2366 53.2003 39.3428 53.8009 38.9334C54.6999 38.3231 54.3637 37.1443 54.1333 36.7159C53.6271 35.7759 52.679 35.014 51.0019 34.0626C50.2472 33.6522 49.4601 33.3048 48.6486 33.024L48.5881 33.0012C48.1009 32.8231 47.5871 32.6525 47.0772 32.4933L46.4539 32.2924C46.4411 33.1385 46.4852 33.9844 46.5861 34.8245C46.898 37.269 47.863 39.3778 48.4137 40.5813C48.57 40.923 48.693 41.1917 48.7581 41.3745C49.6194 43.7928 49.7667 45.2029 49.6194 46.7191C49.4532 48.4854 48.5806 51.37 45.9062 52.6133C45.0023 53.0732 44.0065 53.322 42.9932 53.341C41.9799 53.36 40.9755 53.1488 40.0551 52.7232C38.072 51.7756 37.5016 50.6764 36.9388 49.1602C36.6589 48.4264 36.5381 47.6412 36.5844 46.8568C36.6306 46.0725 36.8429 45.3071 37.207 44.6115C37.7832 43.5999 38.733 42.8564 39.8511 42.5419C41.2223 42.1591 42.1969 42.849 42.2309 43.5388C42.2535 44.0126 41.634 44.7101 41.4112 44.9413C40.8786 45.4985 40.4366 47.4696 41.634 48.2277C42.771 48.9403 44.9354 48.1519 45.1583 46.2339C45.4076 44.1036 44.6257 39.7635 41.4376 35.2983C39.7111 32.8001 38.7703 29.84 38.7368 26.8V26.6711V26.5422C38.7703 23.5022 39.7111 20.5421 41.4376 18.0439C44.6257 13.5787 45.4076 9.23855 45.1583 7.10829C44.9354 5.19029 42.7672 4.40187 41.634 5.11448C40.4366 5.865 40.8672 7.84365 41.4112 8.40085C41.634 8.63207 42.2535 9.32952 42.2309 9.80334C42.1969 10.4932 41.2223 11.1793 39.8511 10.8002C38.733 10.4857 37.7832 9.74228 37.207 8.73062C36.8429 8.03507 36.6306 7.26964 36.5844 6.48533C36.5381 5.70101 36.6589 4.9158 36.9388 4.18202C37.5016 2.6696 38.0682 1.56657 40.0551 0.618943C40.9755 0.193336 41.9799 -0.0178545 42.9932 0.00118161C44.0065 0.0202177 45.0023 0.268985 45.9062 0.728865C48.5806 1.97215 49.4532 4.85673 49.6194 6.6231C49.7667 8.13172 49.6194 9.54558 48.7581 11.9677C48.6926 12.1589 48.5626 12.4445 48.3965 12.8095C47.8445 14.0223 46.8939 16.111 46.5861 18.5177C46.4852 19.3578 46.4411 20.2037 46.4539 21.0498L47.0772 20.8489C47.572 20.6897 48.0858 20.5191 48.5881 20.3409L48.6486 20.3182C49.4601 20.0374 50.2472 19.69 51.0019 19.2796C52.679 18.3358 53.6271 17.5739 54.1333 16.6262C54.3637 16.1979 54.6999 15.0191 53.8009 14.4088C53.2003 13.9994 52.1691 14.1094 51.712 15.2238C51.6702 15.3252 51.6355 15.4584 51.5972 15.605C51.4624 16.1214 51.284 16.8052 50.6015 16.8613C49.4078 16.9598 49.2152 14.5528 49.4305 13.6886C49.5839 13.0735 49.865 12.4979 50.2556 11.9994C50.6462 11.501 51.1374 11.0911 51.6969 10.7965C52.2313 10.4957 52.825 10.3168 53.4361 10.2722C54.0471 10.2277 54.6604 10.3186 55.2325 10.5387C55.9446 10.8385 56.5895 11.2789 57.1287 11.8337C57.6679 12.3885 58.0905 13.0463 58.3715 13.7682C58.7824 14.7353 58.9944 15.7758 58.9947 16.8271C59.0027 17.6821 58.8449 18.5305 58.5301 19.3251C57.9786 20.6556 56.7321 22.1376 54.7981 23.4946C53.3801 24.487 52.209 25.2525 50.6432 26.276C50.4447 26.4057 50.2398 26.5396 50.0273 26.6787C50.4491 26.9552 50.8409 27.2104 51.2131 27.4528ZM36.5043 35.1125C36.8934 35.3096 37.1087 35.484 37.1578 35.6508C37.1797 35.9612 37.0899 36.2692 36.9047 36.5188C32.8365 43.7018 24.5264 47.5833 16.2162 46.1694C8.30262 44.8314 1.80935 38.2965 0.434396 30.2834C0.301329 29.5111 0.216199 28.7113 0.133366 27.9331L0.120875 27.8158L0.120871 27.8158C0.0830986 27.4367 0.0453264 27.0577 0 26.6786C0.0233028 22.3447 1.46023 18.1376 4.09114 14.7005C6.72205 11.2633 10.4022 8.78528 14.569 7.64506C18.7359 6.50485 23.1602 6.76522 27.1656 8.38637C31.1711 10.0075 34.5374 12.9003 36.7499 16.6224C37.0823 17.1531 37.1994 17.5359 37.1276 17.7596C37.0558 17.9832 36.765 18.2069 36.2399 18.4457C33.354 19.7496 30.6003 19.5184 27.8202 17.7444C23.4574 14.9584 17.3116 15.1631 13.2094 18.2258C9.67758 20.8678 8.18552 24.3778 8.90322 28.3768C9.68513 32.7472 12.5295 35.7455 17.1265 37.0533C21.1003 38.179 24.753 37.6825 27.9751 35.5712C30.7439 33.7555 33.5353 33.5963 36.5043 35.1125ZM21.6518 30.1508H22.7208C23.1155 30.1508 23.4941 30.3081 23.7732 30.5882C24.0523 30.8683 24.2091 31.2482 24.2091 31.6443C24.2091 32.0403 24.0523 32.4202 23.7732 32.7003C23.4941 32.9804 23.1155 33.1377 22.7208 33.1377H21.6518C21.2571 33.1377 20.8785 32.9804 20.5994 32.7003C20.3203 32.4202 20.1635 32.0403 20.1635 31.6443C20.1635 31.2482 20.3203 30.8683 20.5994 30.5882C20.8785 30.3081 21.2571 30.1508 21.6518 30.1508ZM22.7208 20.212H21.6518C21.2571 20.212 20.8785 20.3694 20.5994 20.6495C20.3203 20.9295 20.1635 21.3094 20.1635 21.7055C20.1635 22.1016 20.3203 22.4814 20.5994 22.7615C20.8785 23.0416 21.2571 23.199 21.6518 23.199H22.7208C23.1155 23.199 23.4941 23.0416 23.7732 22.7615C24.0523 22.4814 24.2091 22.1016 24.2091 21.7055C24.2091 21.3094 24.0523 20.9295 23.7732 20.6495C23.4941 20.3694 23.1155 20.212 22.7208 20.212Z" fill="#105FD3"/>
</g>
<defs>
<clipPath id="clip0_4261_75593">
<rect width="58.995" height="53.3422" fill="white"/>
</clipPath>
</defs>
</svg>
