<svg width="18" height="18" viewBox="0 0 18 18" fill="none" xmlns="http://www.w3.org/2000/svg">
<path d="M6.75 3.75C7.54565 3.75 8.30871 4.06607 8.87132 4.62868C9.43393 5.19129 9.75 5.95435 9.75 6.75C9.75 7.54565 9.43393 8.30871 8.87132 8.87132C8.30871 9.43393 7.54565 9.75 6.75 9.75C5.95435 9.75 5.19129 9.43393 4.62868 8.87132C4.06607 8.30871 3.75 7.54565 3.75 6.75C3.75 5.95435 4.06607 5.19129 4.62868 4.62868C5.19129 4.06607 5.95435 3.75 6.75 3.75ZM6.75 11.25C8.7525 11.25 12.75 12.255 12.75 14.25V15.75H0.75V14.25C0.75 12.255 4.7475 11.25 6.75 11.25ZM12.57 4.02C14.085 5.67 14.085 7.9575 12.57 9.4725L11.31 8.205C11.94 7.32 11.94 6.1725 11.31 5.2875L12.57 4.02ZM15.0525 1.5C18 4.5375 17.9775 9.0825 15.0525 12L13.83 10.7775C15.9075 8.3925 15.9075 4.9875 13.83 2.7225L15.0525 1.5Z" fill="#062046"/>
</svg>
