<svg width="16" height="17" viewBox="0 0 16 17" fill="none" xmlns="http://www.w3.org/2000/svg">
<path d="M13.3333 3.33919C13.3333 2.60253 12.7367 2.00586 12 2.00586" stroke="#062046" stroke-width="1.3" stroke-linecap="round" stroke-linejoin="round"/>
<path d="M11.9993 2.00586H3.99935C3.26268 2.00586 2.66602 2.60253 2.66602 3.33919V12.6725C2.66602 13.4092 3.26268 14.0059 3.99935 14.0059H11.9993C12.736 14.0059 13.3327 13.4092 13.3327 12.6725" stroke="#062046" stroke-width="1.3" stroke-linecap="round" stroke-linejoin="round"/>
<path d="M5.33333 2.00586V14.0059" stroke="#062046" stroke-width="1.3" stroke-linecap="round" stroke-linejoin="round"/>
<path fill-rule="evenodd" clip-rule="evenodd" d="M13.3327 9.33854H11.9993C11.2627 9.33854 10.666 8.74187 10.666 8.00521V8.00521C10.666 7.26854 11.2627 6.67188 11.9993 6.67188H13.3327C13.7007 6.67188 13.9993 6.97054 13.9993 7.33854V8.67187C13.9993 9.03987 13.7007 9.33854 13.3327 9.33854Z" stroke="#062046" stroke-width="1.3" stroke-linecap="round" stroke-linejoin="round"/>
<path d="M13.3333 3.33984V6.67318" stroke="#062046" stroke-width="1.3" stroke-linecap="round" stroke-linejoin="round"/>
<path d="M13.3333 12.6732V9.33984" stroke="#062046" stroke-width="1.3" stroke-linecap="round" stroke-linejoin="round"/>
</svg>
