<svg width="24" height="24" viewBox="0 0 24 24" fill="none" xmlns="http://www.w3.org/2000/svg">
<path d="M11.9922 22.4962C17.7891 22.4962 22.4884 17.7969 22.4884 12C22.4884 6.20319 17.7891 1.50391 11.9922 1.50391C6.19538 1.50391 1.49609 6.20319 1.49609 12C1.49609 17.7969 6.19538 22.4962 11.9922 22.4962Z" stroke="#347AE2" stroke-width="2.24917" stroke-linecap="round" stroke-linejoin="round"/>
<path d="M9.3682 8.81482C9.3682 8.31385 9.3682 8.06337 9.47289 7.92353C9.56412 7.80167 9.70378 7.72543 9.85562 7.71458C10.0299 7.70214 10.2406 7.83759 10.662 8.10849L15.6168 11.2937C15.9824 11.5288 16.1653 11.6463 16.2284 11.7958C16.2836 11.9264 16.2836 12.0737 16.2284 12.2043C16.1653 12.3538 15.9824 12.4713 15.6168 12.7064L10.662 15.8916C10.2406 16.1625 10.0299 16.298 9.85562 16.2855C9.70378 16.2747 9.56412 16.1984 9.47289 16.0766C9.3682 15.9367 9.3682 15.6862 9.3682 15.1853V8.81482Z" stroke="#347AE2" stroke-width="2.24917" stroke-linecap="round" stroke-linejoin="round"/>
</svg>
