<svg width="16" height="17" viewBox="0 0 16 17" fill="none" xmlns="http://www.w3.org/2000/svg">
<path fill-rule="evenodd" clip-rule="evenodd" d="M4.99734 6.00362H2.99651C2.44408 6.00342 1.9963 5.55563 1.99609 5.0032V3.00237C1.9963 2.44994 2.44408 2.00216 2.99651 2.00195H4.99734C5.54977 2.00216 5.99756 2.44994 5.99776 3.00237V5.0032C5.99756 5.55563 5.54977 6.00342 4.99734 6.00362Z" stroke="#062046" stroke-width="1.3" stroke-linecap="round" stroke-linejoin="round"/>
<path fill-rule="evenodd" clip-rule="evenodd" d="M13.0021 6.00362H9.00042C8.44799 6.00342 8.0002 5.55563 8 5.0032V3.00237C8.0002 2.44994 8.44799 2.00216 9.00042 2.00195H13.0021C13.5545 2.00216 14.0023 2.44994 14.0025 3.00237V5.0032C14.0023 5.55563 13.5545 6.00342 13.0021 6.00362Z" stroke="#062046" stroke-width="1.3" stroke-linecap="round" stroke-linejoin="round"/>
<path fill-rule="evenodd" clip-rule="evenodd" d="M13.0013 12.0075H11.0004C10.448 12.0073 10.0002 11.5595 10 11.0071V9.00628C10.0002 8.45385 10.448 8.00606 11.0004 8.00586H13.0013C13.5537 8.00606 14.0015 8.45385 14.0017 9.00628V11.0071C14.0015 11.5595 13.5537 12.0073 13.0013 12.0075Z" stroke="#062046" stroke-width="1.3" stroke-linecap="round" stroke-linejoin="round"/>
<path fill-rule="evenodd" clip-rule="evenodd" d="M6.6647 14.0074H3.32998C2.97631 14.0075 2.63708 13.8671 2.38693 13.6171C2.13678 13.3671 1.99619 13.0279 1.99609 12.6742V9.6249C1.99599 9.27123 2.1364 8.93201 2.38641 8.68185C2.63643 8.4317 2.97558 8.29111 3.32925 8.29102H6.6647C7.01838 8.29092 7.3576 8.43132 7.60776 8.68133C7.85791 8.93135 7.9985 9.2705 7.99859 9.62417V12.6735C7.99869 13.0272 7.85829 13.3664 7.60828 13.6166C7.35826 13.8667 7.01911 14.0073 6.66544 14.0074H6.6647Z" stroke="#062046" stroke-width="1.3" stroke-linecap="round" stroke-linejoin="round"/>
<path d="M5.70539 10.4414L4.29102 11.8567" stroke="#062046" stroke-width="1.3" stroke-linecap="round" stroke-linejoin="round"/>
<path d="M4.29102 10.4414L5.70627 11.8558" stroke="#062046" stroke-width="1.3" stroke-linecap="round" stroke-linejoin="round"/>
</svg>
