<svg width="16" height="17" viewBox="0 0 16 17" fill="none" xmlns="http://www.w3.org/2000/svg">
<path d="M8.83398 8.00586H10.5007C10.6847 8.00586 10.834 8.15519 10.834 8.33919V9.67253C10.834 9.85653 10.6847 10.0059 10.5007 10.0059H9.16732C8.98332 10.0059 8.83398 9.85653 8.83398 9.67253V8.00586" stroke="#062046" stroke-width="1.3" stroke-linecap="round" stroke-linejoin="round"/>
<path d="M8.83398 8.00586C8.83398 6.67253 9.08398 6.45053 9.83398 6.00586" stroke="#062046" stroke-width="1.3" stroke-linecap="round" stroke-linejoin="round"/>
<path d="M5.16602 8.00586H6.83268C7.01668 8.00586 7.16602 8.15519 7.16602 8.33919V9.67253C7.16602 9.85653 7.01668 10.0059 6.83268 10.0059H5.49935C5.31535 10.0059 5.16602 9.85653 5.16602 9.67253V8.00586" stroke="#062046" stroke-width="1.3" stroke-linecap="round" stroke-linejoin="round"/>
<path d="M5.16602 8.00586C5.16602 6.67253 5.41602 6.45053 6.16602 6.00586" stroke="#062046" stroke-width="1.3" stroke-linecap="round" stroke-linejoin="round"/>
<path fill-rule="evenodd" clip-rule="evenodd" d="M12 14.0059H4C2.89533 14.0059 2 13.1105 2 12.0059V4.00586C2 2.90119 2.89533 2.00586 4 2.00586H12C13.1047 2.00586 14 2.90119 14 4.00586V12.0059C14 13.1105 13.1047 14.0059 12 14.0059Z" stroke="#062046" stroke-width="1.3" stroke-linecap="round" stroke-linejoin="round"/>
</svg>
