<svg width="17" height="17" viewBox="0 0 17 17" fill="none" xmlns="http://www.w3.org/2000/svg">
<path d="M14.005 6.66861V5.00125C14.005 3.34371 12.6613 2 11.0037 2H5.00125C3.34371 2 2 3.34371 2 5.00125V11.0037C2 12.6613 3.34371 14.005 5.00125 14.005H6.66861" stroke="#323232" stroke-width="1.3" stroke-linecap="round" stroke-linejoin="round"/>
<path d="M8.00288 10.6714H7.33594" stroke="#323232" stroke-width="1.3" stroke-linecap="round" stroke-linejoin="round"/>
<path d="M10.7116 12.9648C10.9978 13.2509 11.0835 13.6812 10.9286 14.0551C10.7738 14.4289 10.409 14.6727 10.0044 14.6727C9.59969 14.6727 9.23489 14.4289 9.08006 14.0551C8.92523 13.6812 9.01088 13.2509 9.29706 12.9648C9.68772 12.5742 10.321 12.5742 10.7116 12.9648" stroke="#323232" stroke-width="1.3" stroke-linecap="round" stroke-linejoin="round"/>
<path d="M14.3796 12.2968C14.6658 12.5829 14.7514 13.0132 14.5966 13.3871C14.4418 13.761 14.077 14.0047 13.6723 14.0047C13.2677 14.0047 12.9029 13.761 12.748 13.3871C12.5932 13.0132 12.6788 12.5829 12.965 12.2968C13.3557 11.9063 13.989 11.9063 14.3796 12.2968" stroke="#323232" stroke-width="1.3" stroke-linecap="round" stroke-linejoin="round"/>
<path d="M11.0039 13.6717V10.4557C11.0041 10.1831 11.1702 9.93795 11.4234 9.83679L13.7577 8.90307C13.9631 8.82101 14.1958 8.84612 14.379 8.9701C14.5622 9.09408 14.672 9.30081 14.6721 9.52199V13.0048" stroke="#323232" stroke-width="1.3" stroke-linecap="round" stroke-linejoin="round"/>
<path d="M7.33594 8.00339H9.33677" stroke="#323232" stroke-width="1.3" stroke-linecap="round" stroke-linejoin="round"/>
<path d="M7.33594 5.33543H11.3376" stroke="#323232" stroke-width="1.3" stroke-linecap="round" stroke-linejoin="round"/>
<path d="M4.66941 10.8381C4.62503 10.8386 4.5823 10.8212 4.55092 10.7899C4.51953 10.7585 4.50214 10.7157 4.50268 10.6714C4.50268 10.5793 4.57733 10.5046 4.66941 10.5046C4.7615 10.5046 4.83615 10.5793 4.83615 10.6714C4.83615 10.7634 4.7615 10.8381 4.66941 10.8381" stroke="#323232" stroke-width="1.3" stroke-linecap="round" stroke-linejoin="round"/>
<path d="M4.66941 8.17012C4.62503 8.17067 4.5823 8.15327 4.55092 8.12189C4.51953 8.0905 4.50214 8.04777 4.50268 8.00339C4.50268 7.9113 4.57733 7.83665 4.66941 7.83665C4.7615 7.83665 4.83615 7.9113 4.83615 8.00339C4.83615 8.09547 4.7615 8.17012 4.66941 8.17012" stroke="#323232" stroke-width="1.3" stroke-linecap="round" stroke-linejoin="round"/>
<path d="M4.66941 5.50216C4.62503 5.5027 4.5823 5.48531 4.55092 5.45392C4.51953 5.42253 4.50214 5.3798 4.50268 5.33543C4.50268 5.24333 4.57733 5.16868 4.66941 5.16868C4.7615 5.16868 4.83615 5.24333 4.83615 5.33543C4.83615 5.42751 4.7615 5.50216 4.66941 5.50216" stroke="#323232" stroke-width="1.3" stroke-linecap="round" stroke-linejoin="round"/>
</svg>
