<svg width="18" height="18" viewBox="0 0 18 18" fill="none" xmlns="http://www.w3.org/2000/svg">
<path d="M2.99609 6.33152H15.0011" stroke="#062046" stroke-width="1.3" stroke-linecap="round" stroke-linejoin="round"/>
<path d="M8.24363 4.66022L8.24029 4.66355L8.24363 4.66688L8.24696 4.66355L8.24363 4.66022" stroke="#062046" stroke-width="1.3" stroke-linecap="round" stroke-linejoin="round"/>
<path d="M6.55027 4.66022L6.54693 4.66355L6.55027 4.66688L6.5536 4.66355L6.55027 4.66022" stroke="#062046" stroke-width="1.3" stroke-linecap="round" stroke-linejoin="round"/>
<path d="M4.85105 4.65826L4.84772 4.6616L4.85105 4.66493L4.85438 4.6616L4.85105 4.65826" stroke="#062046" stroke-width="1.3" stroke-linecap="round" stroke-linejoin="round"/>
<path d="M7.6647 15.0011H4.32998C3.97618 15.0011 3.63685 14.8607 3.38667 14.6105C3.1365 14.3603 2.99609 14.021 2.99609 13.6672V4.32998C2.99609 3.97618 3.1365 3.63685 3.38667 3.38667C3.63685 3.1365 3.97618 2.99609 4.32998 2.99609H13.6672C14.021 2.99609 14.3603 3.1365 14.6105 3.38667C14.8607 3.63685 15.0011 3.97618 15.0011 4.32998V7.6647" stroke="#062046" stroke-width="1.3" stroke-linecap="round" stroke-linejoin="round"/>
<path d="M12.1449 12.3383L11.1445 11.3379" stroke="#062046" stroke-width="1.3" stroke-linecap="round" stroke-linejoin="round"/>
<path d="M12.3318 10.0004V9C13.9104 8.99862 15.2738 10.1043 15.5983 11.6493C15.9228 13.1942 15.1195 14.755 13.6737 15.3888C12.2279 16.0227 10.5358 15.5559 9.6194 14.2705C8.70301 12.9851 8.81351 11.2332 9.88413 10.0731" stroke="#062046" stroke-width="1.3" stroke-linecap="round" stroke-linejoin="round"/>
</svg>
