<svg width="32" height="32" viewBox="0 0 32 32" fill="red" xmlns="http://www.w3.org/2000/svg">
<rect width="32" height="32" rx="4" fill="white"/>
<rect x="10" y="13" width="12" height="11" rx="3" fill="#DADDE0"/>
<rect x="21" y="19" width="3" height="2" fill="#DADDE0"/>
<rect x="8" y="19" width="3" height="2" fill="#DADDE0"/>
<rect x="10" y="22" width="1" height="1" fill="#DADDE0"/>
<rect x="21" y="21" width="1" height="2" fill="#DADDE0"/>
<path d="M25.1654 18.4993V20.9993C25.1654 21.4577 24.7904 21.8327 24.332 21.8327H23.4987V22.666C23.4987 23.591 22.757 24.3327 21.832 24.3327H10.1654C9.72334 24.3327 9.29941 24.1571 8.98685 23.8445C8.67429 23.532 8.4987 23.108 8.4987 22.666V21.8327H7.66536C7.20703 21.8327 6.83203 21.4577 6.83203 20.9993V18.4993C6.83203 18.041 7.20703 17.666 7.66536 17.666H8.4987C8.4987 14.441 11.107 11.8327 14.332 11.8327H15.1654V10.7743C14.6654 10.491 14.332 9.94935 14.332 9.33268C14.332 8.41602 15.082 7.66602 15.9987 7.66602C16.9154 7.66602 17.6654 8.41602 17.6654 9.33268C17.6654 9.94935 17.332 10.491 16.832 10.7743V11.8327H17.6654C20.8904 11.8327 23.4987 14.441 23.4987 17.666H24.332C24.7904 17.666 25.1654 18.041 25.1654 18.4993ZM23.4987 19.3327H21.832V17.666C21.832 15.366 19.9654 13.4993 17.6654 13.4993H14.332C12.032 13.4993 10.1654 15.366 10.1654 17.666V19.3327H8.4987V20.166H10.1654V22.666H21.832V20.166H23.4987V19.3327Z" fill="#062046"/>
<path d="M18.9141 20.5833C19.8391 20.5833 20.5807 19.8417 20.5807 18.9167C20.5807 18 19.8307 17.25 18.9141 17.25C17.9974 17.25 17.2474 17.9917 17.2474 18.9167C17.2474 19.8417 17.9891 20.5833 18.9141 20.5833Z" fill="#062046"/>
<path d="M11.4141 18.9167C11.4141 18 12.1641 17.25 13.0807 17.25C14.0057 17.25 14.7474 17.9917 14.7474 18.9167C14.7474 19.8417 13.9974 20.5833 13.0807 20.5833C12.1641 20.5833 11.4141 19.8333 11.4141 18.9167Z" fill="#062046"/>
</svg>
