<svg width="16" height="17" viewBox="0 0 16 17" fill="none" xmlns="http://www.w3.org/2000/svg">
<path d="M8.33235 10.0069C8.34847 9.38304 8.10771 8.77989 7.6664 8.33858C7.22509 7.89727 6.62194 7.65652 5.99805 7.67264" stroke="#062046" stroke-width="1.3" stroke-linecap="round" stroke-linejoin="round"/>
<path d="M5.99805 5.33789C6.56 5.34175 7.11748 5.43819 7.64807 5.62334C8.92994 6.0672 9.93735 7.0746 10.3812 8.35648C10.5664 8.88707 10.6628 9.44455 10.6667 10.0065" stroke="#062046" stroke-width="1.3" stroke-linecap="round" stroke-linejoin="round"/>
<path fill-rule="evenodd" clip-rule="evenodd" d="M10.6664 14.007H5.33082C3.4891 14.007 1.99609 12.5139 1.99609 10.6722V5.33668C1.99609 3.49496 3.4891 2.00195 5.33082 2.00195H10.6664C12.5081 2.00195 14.0011 3.49496 14.0011 5.33668V10.6722C14.0011 12.5139 12.5081 14.007 10.6664 14.007Z" stroke="#062046" stroke-width="1.3" stroke-linecap="round" stroke-linejoin="round"/>
<path d="M6.23144 9.89011C6.23144 9.95457 6.17918 10.0068 6.11472 10.0068C6.05026 10.0068 5.99801 9.95457 5.99801 9.89011C5.99801 9.82565 6.05026 9.7734 6.11472 9.7734" stroke="#062046" stroke-width="1.3" stroke-linecap="round" stroke-linejoin="round"/>
<path d="M6.11496 9.77316C6.17942 9.77316 6.23167 9.82542 6.23167 9.88988" stroke="#062046" stroke-width="1.3" stroke-linecap="round" stroke-linejoin="round"/>
</svg>
