<svg width="14" height="16" viewBox="0 0 14 16" fill="none" xmlns="http://www.w3.org/2000/svg">
<path d="M5.26466 12.9147L5.65429 13.791C5.77012 14.0519 5.95915 14.2735 6.19844 14.4291C6.43774 14.5846 6.71703 14.6674 7.00244 14.6673C7.28785 14.6674 7.56714 14.5846 7.80644 14.4291C8.04574 14.2735 8.23476 14.0519 8.35059 13.791L8.74022 12.9147C8.87892 12.6038 9.11222 12.3446 9.40689 12.174C9.70341 12.0029 10.0464 11.9301 10.3869 11.9658L11.3402 12.0673C11.624 12.0973 11.9104 12.0444 12.1647 11.9149C12.419 11.7854 12.6302 11.5849 12.7728 11.3377C12.9156 11.0907 12.9836 10.8075 12.9686 10.5226C12.9536 10.2376 12.8563 9.96319 12.6884 9.7325L12.1239 8.95695C11.9229 8.67874 11.8155 8.34386 11.8173 8.00065C11.8172 7.65838 11.9256 7.32489 12.1269 7.04806L12.6913 6.2725C12.8592 6.04182 12.9566 5.76736 12.9716 5.48243C12.9866 5.1975 12.9186 4.91435 12.7758 4.66732C12.6332 4.42014 12.4219 4.21964 12.1676 4.09014C11.9134 3.96063 11.627 3.90767 11.3432 3.93769L10.3898 4.03917C10.0494 4.07492 9.70637 4.00207 9.40985 3.83102C9.1146 3.65949 8.88123 3.39889 8.74318 3.08658L8.35059 2.21028C8.23476 1.94943 8.04574 1.72779 7.80644 1.57225C7.56714 1.41671 7.28785 1.33394 7.00244 1.33398C6.71703 1.33394 6.43774 1.41671 6.19844 1.57225C5.95915 1.72779 5.77012 1.94943 5.65429 2.21028L5.26466 3.08658C5.12662 3.39889 4.89325 3.65949 4.598 3.83102C4.30147 4.00207 3.95844 4.07492 3.618 4.03917L2.6617 3.93769C2.37792 3.90767 2.09153 3.96063 1.83724 4.09014C1.58296 4.21964 1.37171 4.42014 1.22911 4.66732C1.08632 4.91435 1.0183 5.1975 1.03329 5.48243C1.04828 5.76736 1.14564 6.04182 1.31355 6.2725L1.878 7.04806C2.07929 7.32489 2.18769 7.65838 2.18763 8.00065C2.18769 8.34293 2.07929 8.67642 1.878 8.95324L1.31355 9.7288C1.14564 9.95948 1.04828 10.2339 1.03329 10.5189C1.0183 10.8038 1.08632 11.087 1.22911 11.334C1.37185 11.581 1.58313 11.7814 1.83737 11.9109C2.09162 12.0404 2.37794 12.0934 2.6617 12.0636L3.61503 11.9621C3.95548 11.9264 4.29851 11.9992 4.59503 12.1703C4.89139 12.3413 5.12584 12.602 5.26466 12.9147Z" stroke="#74778B" stroke-width="1.5" stroke-linecap="round" stroke-linejoin="round"/>
<path d="M7.00125 10.0007C8.10582 10.0007 9.00125 9.10522 9.00125 8.00065C9.00125 6.89608 8.10582 6.00065 7.00125 6.00065C5.89668 6.00065 5.00125 6.89608 5.00125 8.00065C5.00125 9.10522 5.89668 10.0007 7.00125 10.0007Z" stroke="#74778B" stroke-width="1.5" stroke-linecap="round" stroke-linejoin="round"/>
</svg>
