<?xml version="1.0" standalone="no"?>
<!DOCTYPE svg PUBLIC "-//W3C//DTD SVG 20010904//EN"
 "http://www.w3.org/TR/2001/REC-SVG-20010904/DTD/svg10.dtd">
<svg version="1.0" xmlns="http://www.w3.org/2000/svg"
 width="1278.000000pt" height="1280.000000pt" viewBox="0 0 1278.000000 1280.000000"
 preserveAspectRatio="xMidYMid meet">
<metadata>
Created by potrace 1.15, written by Peter Selinger 2001-2017
</metadata>
<g transform="translate(0.000000,1280.000000) scale(0.100000,-0.100000)"
fill="#000000" stroke="none">
<path d="M6760 12443 c-137 -26 -302 -163 -453 -375 -207 -293 -384 -645 -802
-1598 -347 -790 -486 -1070 -667 -1337 -211 -311 -357 -373 -878 -374 -303 0
-573 22 -1315 106 -310 36 -666 73 -930 97 -191 17 -792 17 -905 0 -359 -56
-525 -174 -538 -382 -7 -128 43 -265 161 -442 197 -294 514 -612 1317 -1323
955 -845 1247 -1174 1290 -1452 37 -234 -95 -656 -453 -1458 -364 -816 -430
-963 -490 -1110 -252 -611 -352 -998 -318 -1236 31 -222 145 -333 357 -346
311 -21 768 169 1699 704 749 431 885 508 1051 596 451 240 718 338 924 341
121 1 161 -10 310 -84 265 -133 574 -380 1300 -1040 1006 -916 1405 -1206
1752 -1276 102 -21 173 -13 255 27 145 70 218 237 230 529 14 355 -47 743
-296 1870 -196 889 -239 1143 -248 1455 -6 226 5 313 56 420 80 168 330 378
781 656 191 118 331 199 1035 599 713 406 1082 656 1306 886 321 331 292 599
-87 787 -300 150 -748 236 -1764 342 -1052 108 -1334 148 -1637 225 -387 100
-514 201 -648 515 -117 276 -211 629 -391 1482 -135 644 -212 973 -289 1237
-115 398 -240 668 -380 824 -94 105 -221 156 -335 135z"/>
</g>
</svg>
