<svg width="20" height="20" viewBox="0 0 20 20" fill="none" xmlns="http://www.w3.org/2000/svg">
<path d="M2.5 10L4.375 10M4.6967 4.6967L6.02252 6.02252M10 2.5L10 4.375M15.3033 4.6967L13.9775 6.02252M15.625 10L17.5 10M13.9775 13.9775L15.3033 15.3033M10 15.625L10 17.5M6.02252 13.9775L4.6967 15.3033M10 6.875C11.7259 6.875 13.125 8.27411 13.125 10C13.125 11.7259 11.7259 13.125 10 13.125C8.27411 13.125 6.875 11.7259 6.875 10C6.875 8.27411 8.27411 6.875 10 6.875Z" stroke="#292B38" stroke-width="1.5" stroke-linecap="round" stroke-linejoin="round"/>
</svg>
