<svg width="16" height="16" viewBox="0 0 16 16" fill="none" xmlns="http://www.w3.org/2000/svg">
<path opacity="0.12" d="M2 5.86602C2 4.74591 2 4.18586 2.21799 3.75803C2.40973 3.38171 2.71569 3.07575 3.09202 2.884C3.51984 2.66602 4.0799 2.66602 5.2 2.66602H10.8C11.9201 2.66602 12.4802 2.66602 12.908 2.884C13.2843 3.07575 13.5903 3.38171 13.782 3.75803C14 4.18586 14 4.74591 14 5.86602V6.66602H2V5.86602Z" fill="#062046" stroke="#062046" stroke-width="1.5" stroke-linecap="round" stroke-linejoin="round"/>
<path d="M14 7.66602V5.86602C14 4.74591 14 4.18586 13.782 3.75803C13.5903 3.38171 13.2843 3.07575 12.908 2.884C12.4802 2.66602 11.9201 2.66602 10.8 2.66602H5.2C4.0799 2.66602 3.51984 2.66602 3.09202 2.884C2.71569 3.07575 2.40973 3.38171 2.21799 3.75803C2 4.18586 2 4.74591 2 5.86602V11.466C2 12.5861 2 13.1462 2.21799 13.574C2.40973 13.9503 2.71569 14.2563 3.09202 14.448C3.51984 14.666 4.0799 14.666 5.2 14.666H8.33333M14 6.66602H2M12 13.9993V9.99935M10 11.9993H14" stroke="#062046" stroke-width="1.5" stroke-linecap="round" stroke-linejoin="round"/>
<circle cx="4.66667" cy="4.66667" r="0.666667" fill="#062046"/>
<circle cx="6.66667" cy="4.66667" r="0.666667" fill="#062046"/>
<ellipse cx="8.66667" cy="4.66667" rx="0.666667" ry="0.666667" fill="#062046"/>
</svg>
