<svg width="132" height="104" viewBox="0 0 132 104" fill="none" xmlns="http://www.w3.org/2000/svg">
<path d="M67.0672 79.459C85.9861 79.459 101.324 64.1212 101.324 45.1348C101.324 26.1483 85.9185 10.8105 67.0672 10.8105C48.1483 10.8105 32.8105 26.1483 32.8105 45.1348C32.8105 64.1212 48.1483 79.459 67.0672 79.459Z" fill="#EAEEF9"/>
<path d="M98.823 22.7026C100.353 22.7026 101.593 21.4623 101.593 19.9324C101.593 18.4024 100.353 17.1621 98.823 17.1621C97.293 17.1621 96.0527 18.4024 96.0527 19.9324C96.0527 21.4623 97.293 22.7026 98.823 22.7026Z" fill="#F1F3F9"/>
<path d="M102.876 11.8912C103.921 11.8912 104.768 11.0442 104.768 9.99931C104.768 8.95445 103.921 8.10742 102.876 8.10742C101.831 8.10742 100.984 8.95445 100.984 9.99931C100.984 11.0442 101.831 11.8912 102.876 11.8912Z" fill="#EAEEF9"/>
<path d="M29.972 27.4322C31.0168 27.4322 31.8639 26.5852 31.8639 25.5403C31.8639 24.4955 31.0168 23.6484 29.972 23.6484C28.9271 23.6484 28.0801 24.4955 28.0801 25.5403C28.0801 26.5852 28.9271 27.4322 29.972 27.4322Z" fill="#EAEEF9"/>
<path d="M40.3768 79.9997C42.3172 79.9997 43.8903 78.4266 43.8903 76.4862C43.8903 74.5457 42.3172 72.9727 40.3768 72.9727C38.4363 72.9727 36.8633 74.5457 36.8633 76.4862C36.8633 78.4266 38.4363 79.9997 40.3768 79.9997Z" fill="#EAEEF9"/>
<g filter="url(#filter0_d_2170_26785)">
<path d="M109.837 54.3277C109.837 63.0583 102.777 70.1187 93.9706 70.1187C93.8187 70.1187 92.5281 70.1187 83.0383 70.1187C76.4334 70.1187 65.8808 70.1187 49.0269 70.1187H40.9796C30.4269 70.3465 22 61.9196 22 51.7465C22 41.4975 30.5028 32.9947 41.2073 33.5261C50.3934 4.82899 92.4522 8.85266 96.0203 38.5367C103.916 39.5237 109.837 46.2045 109.837 54.3277Z" fill="url(#paint0_linear_2170_26785)"/>
</g>
<path d="M93.9704 70.1191C102.701 70.1191 109.837 63.0587 109.837 54.3281C109.837 45.5975 102.701 38.5371 93.9704 38.5371C85.2398 38.5371 78.1035 45.5975 78.1035 54.3281C78.1035 63.0587 85.2398 70.1191 93.9704 70.1191Z" fill="url(#paint1_linear_2170_26785)"/>
<path d="M68.0814 70.2708C83.6447 70.2708 96.3231 57.6684 96.3231 42.1051C96.3231 26.5419 83.6447 13.9395 68.0814 13.9395C52.5182 13.9395 39.8398 26.5419 39.8398 42.1051C39.8398 57.6684 52.4423 70.2708 68.0814 70.2708Z" fill="url(#paint2_linear_2170_26785)"/>
<path d="M60.2546 42.9127L61.5753 41.5889C61.9606 41.2028 61.9606 40.5409 61.5753 40.1548C61.1901 39.7687 60.5297 39.7687 60.1445 40.1548L58.8237 41.4786L57.503 40.1548C57.1177 39.7687 56.4573 39.7687 56.0721 40.1548C55.6869 40.5409 55.6869 41.2028 56.0721 41.5889L57.3929 42.9127L56.0721 44.2364C55.6869 44.6225 55.6869 45.2844 56.0721 45.6705C56.2923 45.8911 56.5124 45.9463 56.7875 45.9463C57.0627 45.9463 57.2828 45.836 57.503 45.6705L58.8237 44.3467L60.1445 45.6705C60.3646 45.8911 60.5848 45.9463 60.8599 45.9463C61.1351 45.9463 61.3552 45.836 61.5753 45.6705C61.9606 45.2844 61.9606 44.6225 61.5753 44.2364L60.2546 42.9127Z" fill="#989FB0"/>
<path d="M74.2651 42.9127L75.7326 41.5889C76.1606 41.2028 76.1606 40.5409 75.7326 40.1548C75.3046 39.7687 74.5708 39.7687 74.1428 40.1548L72.6752 41.4786L71.2077 40.1548C70.7797 39.7687 70.0459 39.7687 69.6179 40.1548C69.1899 40.5409 69.1899 41.2028 69.6179 41.5889L71.0854 42.9127L69.6179 44.2364C69.1899 44.6225 69.1899 45.2844 69.6179 45.6705C69.8625 45.8911 70.1071 45.9463 70.4128 45.9463C70.7185 45.9463 70.9631 45.836 71.2077 45.6705L72.6752 44.3467L74.1428 45.6705C74.3874 45.8911 74.6319 45.9463 74.9377 45.9463C75.2434 45.9463 75.488 45.836 75.7326 45.6705C76.1606 45.2844 76.1606 44.6225 75.7326 44.2364L74.2651 42.9127Z" fill="#989FB0"/>
<path fill-rule="evenodd" clip-rule="evenodd" d="M36.0112 16.252C36.1695 15.6289 36.803 15.2522 37.4261 15.4106L41.8316 16.5304C42.4546 16.6888 42.8313 17.3223 42.6729 17.9453C42.5146 18.5684 41.8811 18.9451 41.258 18.7867L36.8525 17.6669C36.2295 17.5085 35.8528 16.875 36.0112 16.252Z" fill="#989FB0"/>
<path fill-rule="evenodd" clip-rule="evenodd" d="M39.7546 3.8618C40.2865 3.50076 41.0104 3.63927 41.3714 4.17117L46.6379 11.9299C46.9989 12.4618 46.8604 13.1857 46.3285 13.5468C45.7966 13.9078 45.0728 13.7693 44.7117 13.2374L39.4452 5.47863C39.0842 4.94672 39.2227 4.22285 39.7546 3.8618Z" fill="#989FB0"/>
<path fill-rule="evenodd" clip-rule="evenodd" d="M49.5233 0.362353C50.1539 0.237531 50.7664 0.647569 50.8912 1.2782L52.7119 10.4771C52.8368 11.1077 52.4267 11.7201 51.7961 11.8449C51.1655 11.9698 50.5531 11.5597 50.4282 10.9291L48.6075 1.73022C48.4826 1.09959 48.8927 0.487175 49.5233 0.362353Z" fill="#989FB0"/>
<rect x="58.4863" y="52.0273" width="15.5405" height="2.02702" fill="#989FB0"/>
<path d="M67.9453 52.7031H70.648V56.0815C70.648 56.8278 70.043 57.4328 69.2967 57.4328C68.5503 57.4328 67.9453 56.8278 67.9453 56.0815V52.7031Z" fill="#989FB0"/>
<path d="M103.483 23.0177C103.195 24.2317 102.763 25.3989 102.235 26.4728C100.842 28.9941 98.7776 31.0485 96.1848 32.3091C93.496 33.6631 90.3271 34.13 87.1101 33.5231C79.6198 31.9823 74.7704 24.8853 76.3548 17.5549C77.9393 10.2245 85.1895 5.50881 92.7278 7.04959C95.4166 7.60988 97.7693 8.87052 99.7379 10.6914C103.003 13.9598 104.395 18.5821 103.483 23.0177Z" fill="url(#paint3_linear_2170_26785)"/>
<path d="M87.7227 13.6212L87.7226 13.6212L87.7232 13.6292L88.272 20.436C88.3231 21.3129 89.002 22.1214 89.906 22.1214C90.81 22.1214 91.4889 21.3129 91.54 20.436L92.0887 13.6292L92.0888 13.6292L92.0894 13.6201C92.1759 12.2285 91.2519 10.9863 89.906 10.9863C88.5545 10.9863 87.636 12.2771 87.7227 13.6212Z" fill="white" stroke="white"/>
<path d="M89.906 24.5C88.6914 24.5 87.7168 25.4746 87.7168 26.6892C87.7168 27.9038 88.6914 28.8784 89.906 28.8784C91.1206 28.8784 92.0952 27.9038 92.0952 26.6892C92.0952 25.4746 91.1206 24.5 89.906 24.5Z" fill="white" stroke="white"/>
<defs>
<filter id="filter0_d_2170_26785" x="0" y="3.00781" width="131.838" height="100.115" filterUnits="userSpaceOnUse" color-interpolation-filters="sRGB">
<feFlood flood-opacity="0" result="BackgroundImageFix"/>
<feColorMatrix in="SourceAlpha" type="matrix" values="0 0 0 0 0 0 0 0 0 0 0 0 0 0 0 0 0 0 127 0" result="hardAlpha"/>
<feOffset dy="11"/>
<feGaussianBlur stdDeviation="11"/>
<feColorMatrix type="matrix" values="0 0 0 0 0.397708 0 0 0 0 0.47749 0 0 0 0 0.575 0 0 0 0.27 0"/>
<feBlend mode="normal" in2="BackgroundImageFix" result="effect1_dropShadow_2170_26785"/>
<feBlend mode="normal" in="SourceGraphic" in2="effect1_dropShadow_2170_26785" result="shape"/>
</filter>
<linearGradient id="paint0_linear_2170_26785" x1="65.9187" y1="37.1969" x2="65.8901" y2="70.7282" gradientUnits="userSpaceOnUse">
<stop stop-color="white"/>
<stop offset="0.9964" stop-color="#ECF0F5"/>
</linearGradient>
<linearGradient id="paint1_linear_2170_26785" x1="76.415" y1="35.1373" x2="90.4809" y2="50.5212" gradientUnits="userSpaceOnUse">
<stop stop-color="#BCCBE1"/>
<stop offset="0.9942" stop-color="white" stop-opacity="0"/>
</linearGradient>
<linearGradient id="paint2_linear_2170_26785" x1="37.1953" y1="29.1807" x2="59.3644" y2="37.8561" gradientUnits="userSpaceOnUse">
<stop stop-color="#E2E8F0"/>
<stop offset="0.9942" stop-color="white" stop-opacity="0"/>
</linearGradient>
<linearGradient id="paint3_linear_2170_26785" x1="76.042" y1="20.2742" x2="103.762" y2="20.2742" gradientUnits="userSpaceOnUse">
<stop stop-color="#B0BACC"/>
<stop offset="1" stop-color="#969EAE"/>
</linearGradient>
</defs>
</svg>
