<svg width="16" height="17" viewBox="0 0 16 17" fill="none" xmlns="http://www.w3.org/2000/svg">
<path d="M14.6673 5.96076C14.6673 5.55688 14.6673 5.35494 14.5875 5.26143C14.5182 5.1803 14.4142 5.13724 14.3078 5.14561C14.1852 5.15526 14.0424 5.29805 13.7569 5.58363L11.334 8.00651L13.7569 10.4294C14.0424 10.715 14.1852 10.8578 14.3078 10.8674C14.4142 10.8758 14.5182 10.8327 14.5875 10.7516C14.6673 10.6581 14.6673 10.4561 14.6673 10.0523V5.96076Z" stroke="#062046" stroke-width="1.3" stroke-linecap="round" stroke-linejoin="round"/>
<path d="M1.33398 6.53984C1.33398 5.41974 1.33398 4.85969 1.55197 4.43186C1.74372 4.05554 2.04968 3.74958 2.426 3.55783C2.85383 3.33984 3.41388 3.33984 4.53398 3.33984H8.13398C9.25409 3.33984 9.81414 3.33984 10.242 3.55783C10.6183 3.74958 10.9243 4.05554 11.116 4.43186C11.334 4.85969 11.334 5.41974 11.334 6.53984V9.47318C11.334 10.5933 11.334 11.1533 11.116 11.5812C10.9243 11.9575 10.6183 12.2634 10.242 12.4552C9.81414 12.6732 9.25409 12.6732 8.13398 12.6732H4.53398C3.41388 12.6732 2.85383 12.6732 2.426 12.4552C2.04968 12.2634 1.74372 11.9575 1.55197 11.5812C1.33398 11.1533 1.33398 10.5933 1.33398 9.47318V6.53984Z" stroke="#062046" stroke-width="1.3" stroke-linecap="round" stroke-linejoin="round"/>
</svg>
