<svg width="16" height="19" viewBox="0 0 16 19" fill="none" xmlns="http://www.w3.org/2000/svg">
<path d="M1 7.04006C1 6.46602 1 6.179 1.11172 5.95975C1.20998 5.76689 1.36678 5.61009 1.55965 5.51182C1.7789 5.40011 2.06592 5.4001 2.63996 5.4001H4.4206C4.6713 5.4001 4.79665 5.40011 4.91461 5.37179C5.0192 5.34668 5.11918 5.30526 5.21088 5.24907C5.31432 5.18568 5.40296 5.09704 5.58023 4.91977L8.82497 1.67503C9.26405 1.23595 9.48358 1.01642 9.67207 1.00158C9.83561 0.988711 9.99543 1.05491 10.102 1.17966C10.2248 1.32342 10.2248 1.6339 10.2248 2.25484V16.7452C10.2248 17.3661 10.2248 17.6766 10.102 17.8203C9.99543 17.9451 9.83561 18.0113 9.67207 17.9984C9.48358 17.9836 9.26405 17.764 8.82497 17.325L5.58023 14.0802C5.40296 13.903 5.31432 13.8143 5.21088 13.7509C5.11918 13.6947 5.0192 13.6533 4.91461 13.6282C4.79665 13.5999 4.6713 13.5999 4.4206 13.5999H2.63996C2.06592 13.5999 1.7789 13.5999 1.55965 13.4882C1.36678 13.3899 1.20998 13.2331 1.11172 13.0402C1 12.821 1 12.534 1 11.9599V7.04006Z" stroke="#062046" stroke-width="1.5" stroke-linecap="round" stroke-linejoin="round"/>
<path d="M8.52912 13.169L8.52899 13.1687C8.47365 13.0459 8.37954 12.9421 8.25887 12.8734L8.52912 13.169ZM8.52912 13.169L8.80769 13.7863M8.52912 13.169L8.80769 13.7863M7.17532 12.8608L7.17467 12.8609C6.87716 12.8917 6.57667 12.837 6.30934 12.7029C6.04194 12.5687 5.8186 12.3605 5.66724 12.1024C5.51574 11.8441 5.44323 11.5474 5.4592 11.2484C5.47516 10.9494 5.57886 10.662 5.75677 10.4212L7.17532 12.8608ZM7.17532 12.8608L7.85647 12.7894C7.85659 12.7894 7.85671 12.7894 7.85683 12.7894M7.17532 12.8608L7.85683 12.7894M8.52867 5.83307L8.52912 5.83206L8.80769 5.21479C8.80772 5.21472 8.80776 5.21464 8.80779 5.21456C8.93082 4.94169 9.13103 4.71099 9.38307 4.54958C9.63506 4.3882 9.92844 4.30272 10.2277 4.30273L8.52867 5.83307ZM8.52867 5.83307C8.47372 5.95555 8.38025 6.05917 8.2603 6.12801M8.52867 5.83307L8.2603 6.12801M11.929 5.83307L11.929 5.83307C11.9839 5.95554 12.0774 6.05915 12.1973 6.128C12.3183 6.19655 12.4588 6.2261 12.5988 6.21168C12.5989 6.21167 12.5989 6.21166 12.599 6.21165L13.2802 6.14021L13.2805 6.14018C13.5781 6.10916 13.8788 6.16381 14.1463 6.29802L13.922 6.74491L14.1463 6.29802C14.4138 6.43226 14.6372 6.64067 14.7884 6.89898C14.9398 7.15717 15.0123 7.45377 14.9963 7.75268C14.9803 8.0517 14.8767 8.33902 14.6987 8.57984L11.929 5.83307ZM11.929 5.83307L11.9279 5.83076M11.929 5.83307L11.9279 5.83076M11.9279 5.83076L11.6478 5.21479C11.6477 5.21452 11.6476 5.21424 11.6474 5.21396C11.5244 4.94135 11.3243 4.71087 11.0724 4.54958L10.8028 4.97063M11.9279 5.83076L10.8028 4.97063M13.2784 12.8635L13.2781 12.8635L12.5969 12.792C12.5968 12.792 12.5967 12.792 12.5966 12.792C12.4566 12.7776 12.3159 12.8072 12.1949 12.8758C12.0751 12.9443 11.9815 13.0473 11.9263 13.1693C11.9262 13.1694 11.9262 13.1695 11.9261 13.1695L11.6478 13.7863C11.6478 13.7863 11.6478 13.7864 11.6477 13.7865C11.5247 14.0594 11.3245 14.2901 11.0724 14.4515C10.8204 14.6129 10.5271 14.6983 10.2278 14.6983L13.2784 12.8635ZM13.2784 12.8635C13.576 12.8945 13.8767 12.8399 14.1441 12.7057C14.4115 12.5715 14.6349 12.3632 14.7861 12.105L13.2784 12.8635ZM8.80769 13.7863C8.80772 13.7863 8.80776 13.7864 8.80779 13.7865C8.93082 14.0594 9.13103 14.2901 9.38307 14.4515L9.65272 14.0304M8.80769 13.7863L9.65272 14.0304M10.8028 4.97063L11.0724 4.54958C10.8204 4.3882 10.5271 4.30272 10.2278 4.30273L10.8028 4.97063ZM9.65272 14.0304L9.38307 14.4515C9.63506 14.6129 9.92844 14.6983 10.2277 14.6983L9.65272 14.0304ZM7.85683 12.7894C7.99696 12.7749 8.1377 12.8046 8.25876 12.8734L7.85683 12.7894ZM8.2603 6.12801C8.13932 6.19658 7.99872 6.22612 7.85876 6.21167C7.8587 6.21166 7.85865 6.21166 7.85859 6.21165L8.2603 6.12801ZM6.16034 9.87488L5.75679 10.4212L6.16047 9.12635C6.24124 9.23586 6.28412 9.36682 6.2841 9.50044L6.2841 9.50062C6.28412 9.63424 6.24124 9.7652 6.16047 9.87471C6.16043 9.87477 6.16039 9.87483 6.16034 9.87488ZM5.75679 8.57987L6.16034 9.12618L5.66728 6.89862C5.66721 6.89874 5.66714 6.89886 5.66707 6.89898C5.51569 7.15717 5.44324 7.45377 5.4592 7.75268C5.47516 8.0517 5.57886 8.33902 5.75677 8.57984C5.75678 8.57985 5.75678 8.57986 5.75679 8.57987ZM14.2952 9.12618L14.6987 8.57987L14.7862 12.1049C14.9377 11.8467 15.0102 11.55 14.9942 11.251C14.9782 10.952 14.8745 10.6646 14.6966 10.4238L14.294 9.87874C14.2938 9.87857 14.2937 9.87839 14.2936 9.87821C14.2131 9.76824 14.1707 9.63689 14.1714 9.50306L14.1714 9.50044C14.1714 9.36682 14.2143 9.23586 14.295 9.12635C14.2951 9.12629 14.2951 9.12624 14.2952 9.12618ZM11.009 9.50053C11.009 9.93198 10.6592 10.2817 10.2278 10.2817C9.7963 10.2817 9.44654 9.93198 9.44654 9.50053C9.44654 9.06908 9.7963 8.71931 10.2278 8.71931C10.6592 8.71931 11.009 9.06908 11.009 9.50053Z" fill="#062046" stroke="#DADDE0" stroke-linecap="round" stroke-linejoin="round"/>
<circle cx="10.2258" cy="9.49925" r="1.39769" fill="#C9C9C9"/>
</svg>
