<svg width="64" height="64" viewBox="0 0 64 64" fill="none" xmlns="http://www.w3.org/2000/svg">
<g clip-path="url(#clip0_244_6)">
<path d="M28.1003 6.36508C22.9003 7.53508 18.6623 9.92708 15.0743 13.7491C11.6163 17.4411 9.22426 22.4331 8.62626 27.1911C8.39226 29.0371 8.41826 29.3491 8.83426 29.9211C9.09426 30.2851 9.61426 30.5971 9.97826 30.6491C11.0703 30.7791 11.6163 29.9731 11.9543 27.7111C12.7603 22.1731 15.5943 17.2591 19.8583 13.9051C26.8523 8.41908 35.9523 7.71708 43.7003 12.0591C46.2483 13.4891 49.9923 17.1551 51.5003 19.7291C59.2483 32.9111 51.1623 49.5511 35.9003 51.7871C34.2883 52.0211 33.7163 52.2031 33.4303 52.6191C32.9363 53.3211 32.9363 54.1271 33.4043 54.7511C33.8723 55.4011 35.9003 55.3491 38.9683 54.6211C48.2763 52.4111 55.3483 45.0791 57.3763 35.5111C57.8963 33.0931 57.8703 28.2051 57.3503 25.6051C55.3483 15.9071 47.8343 8.39308 38.1883 6.41708C35.7963 5.92308 30.2323 5.89708 28.1003 6.36508Z" fill="#151515"/>
<path d="M30.5702 12.1359C22.0682 13.5139 15.6202 20.0919 14.6842 28.3079C14.4762 30.2579 14.7362 30.6999 16.1662 30.6999C17.3102 30.6999 17.9602 30.1539 17.9602 29.1659C17.9602 26.6959 19.7542 22.7699 22.0162 20.3519C25.7342 16.3219 31.1162 14.6059 36.3162 15.7499C42.6602 17.1279 46.6902 21.1579 47.9642 27.3719C48.4842 29.8419 48.4842 31.3499 47.9902 33.6899C46.6382 40.0859 41.1522 44.9999 34.6002 45.7539L33.1702 45.9099L33.0922 47.1579C32.9622 49.0039 33.3002 49.2639 35.3542 49.0559C45.2342 48.0419 52.7222 38.5779 51.5522 28.5939C51.2142 25.7599 50.2002 22.6139 48.8742 20.4039C46.8202 16.8939 42.8682 14.0079 38.5002 12.7599C36.5762 12.2399 32.2082 11.8759 30.5702 12.1359Z" fill="#151515"/>
<path d="M22.2498 32.3904C13.7998 34.5484 13.5398 34.6784 13.5398 36.7324C13.5398 37.6944 13.7218 37.9544 15.5418 39.8264L17.5438 41.9064L12.1878 47.2884C9.24977 50.2524 6.70177 52.9304 6.54577 53.2424C6.38977 53.5544 6.25977 54.3604 6.25977 55.0104C6.25977 56.0504 6.38977 56.3624 7.14377 57.1164C7.94977 57.9224 8.15777 58.0004 9.56177 58.0004L11.0698 58.0264L16.6858 52.3064L22.3018 46.6124L23.7058 48.0424C25.7078 50.0704 26.4358 50.5384 27.6318 50.5384C29.5558 50.5384 29.6858 50.2524 31.7398 41.4124C32.7278 37.0704 33.5598 33.1964 33.5598 32.7804C33.5598 32.3644 33.2738 31.6884 32.8838 31.2464C32.3118 30.5444 32.0518 30.4404 31.0118 30.4664C30.3358 30.4664 26.4098 31.3504 22.2498 32.3904Z" fill="#151515"/>
</g>
<defs>
<clipPath id="clip0_244_6">
<rect width="52" height="52" fill="white" transform="translate(6 6)"/>
</clipPath>
</defs>
</svg>
