<svg width="64" height="64" viewBox="0 0 64 64" fill="none" xmlns="http://www.w3.org/2000/svg">
<path d="M19.6294 6.24375C18.1466 6.80235 17.1005 8.09219 16.8568 9.67656C16.7959 10.0727 16.7755 19.1828 16.7857 33.8586L16.8162 57.4109L17.1513 57.7055C17.4052 57.9391 17.5779 58 17.9334 58C18.3091 58 18.4818 57.9289 19.0709 57.4719C19.4466 57.1773 22.5138 54.8211 25.8755 52.2414L31.9998 47.5289L38.124 52.2414C41.4857 54.8211 44.5529 57.1773 44.9287 57.4719C45.5177 57.9289 45.6904 58 46.0662 58C46.4216 58 46.5943 57.9391 46.8482 57.7055L47.1834 57.4109L47.2138 33.8586C47.224 19.1828 47.2037 10.0727 47.1427 9.67656C46.899 8.06172 45.7818 6.7211 44.2685 6.21328C43.6388 6 43.5779 6 31.9591 6.01016H20.2693L19.6294 6.24375ZM43.9334 8.55938C44.4716 8.93516 44.7763 9.39219 44.8982 10.0523C45.0099 10.6313 45.0505 54.5469 44.9388 54.5469C44.9084 54.5469 42.3388 52.5867 39.231 50.2C36.1232 47.8031 33.3201 45.6602 33.0154 45.4266C32.5482 45.0711 32.3755 45 31.9998 45C31.624 45 31.4513 45.0711 30.9841 45.4266C30.6794 45.6602 27.8763 47.8031 24.7685 50.2C21.6607 52.5867 19.0912 54.5469 19.0607 54.5469C18.949 54.5469 18.9896 10.6313 19.1013 10.0523C19.2638 9.21953 19.8021 8.56953 20.574 8.31563C20.6857 8.28516 25.8959 8.26485 32.1521 8.26485L43.5271 8.28516L43.9334 8.55938Z" fill="#151515"/>
</svg>
