<svg width="64" height="64" viewBox="0 0 64 64" fill="none" xmlns="http://www.w3.org/2000/svg">
<g clip-path="url(#clip0_244_28)">
<path d="M51.4007 6.44727H12.5983C9.23913 6.44727 6.51953 9.17207 6.51953 12.5417V51.4585C6.51953 54.8229 9.23913 57.5529 12.5983 57.5529H51.4007C54.7599 57.5529 57.4795 54.8229 57.4795 51.4585V12.5417C57.4795 9.17207 54.7599 6.44727 51.4007 6.44727ZM54.4219 51.2037C54.4219 52.9873 52.9763 54.4277 51.1979 54.4277H12.8011C11.0175 54.4277 9.57713 52.9821 9.57713 51.2037V12.7965C9.57713 11.0129 11.0227 9.57247 12.8011 9.57247H51.1979C52.9815 9.57247 54.4219 11.0181 54.4219 12.7965V51.2037Z" fill="black"/>
<path d="M22.3943 16.0312L30.0383 23.6649C27.5215 24.2785 17.1527 29.5929 19.7059 41.1005C22.8727 51.6201 35.2643 51.1104 35.2643 51.1104C33.0179 50.2264 26.8871 46.1757 29.1335 39.5665C31.6867 33.2693 38.8523 32.4477 38.8523 32.4477L47.9003 41.5165L47.8483 16.0312H22.3943Z" fill="black"/>
</g>
<defs>
<clipPath id="clip0_244_28">
<rect width="52" height="52" fill="white" transform="translate(6 6)"/>
</clipPath>
</defs>
</svg>
